<svg width="739" height="224" viewBox="0 0 739 224" fill="none" xmlns="http://www.w3.org/2000/svg">
<mask id="mask0_644_1327" style="mask-type:alpha" maskUnits="userSpaceOnUse" x="0" y="32" width="159" height="160">
<rect y="32.5" width="159" height="159" rx="44.8462" fill="#D9D9D9"/>
</mask>
<g mask="url(#mask0_644_1327)">
<path d="M159.042 32.5H0V191.542H159.042V32.5Z" fill="#E72264"/>
<path d="M83.3251 56.5C60.5013 56.5 42 74.9828 42 97.784C42 98.2309 42.0077 98.6739 42.0231 99.1169V138.791C42.0231 138.791 42.0231 138.795 42.0231 138.798V142.832C42.0231 142.832 42.0231 142.832 42.027 142.828V152.801C42.027 152.878 42.0231 152.951 42.0231 153.028C42.0231 153.105 42.027 153.182 42.0308 153.26V153.444H42.0347C42.2545 161.106 48.536 167.251 56.2596 167.251C63.9833 167.251 70.3303 161.106 70.5501 153.444V138.798H82.3573C82.6773 138.806 83.0012 138.81 83.3213 138.81C106.145 138.81 124.646 120.585 124.646 97.784C124.646 74.9828 106.149 56.5 83.3251 56.5ZM83.3251 110.304C80.7994 110.304 74.3984 110.304 71.7416 110.304H70.5617V97.7879C70.5617 90.773 76.3033 85.0833 83.3251 85.0833C90.347 85.0833 96.0424 90.773 96.0424 97.7879C96.0424 104.803 90.347 110.308 83.3251 110.308V110.304Z" fill="white"/>
<path opacity="0.15" d="M55.901 138.806H70.5308V153.448H70.4653C70.2455 161.11 63.964 167.255 56.2403 167.255C48.5167 167.255 42.2314 161.11 42.0116 153.448H42.0077V153.263C42.0077 153.186 42 153.109 42 153.032C42 152.955 42.0039 152.882 42.0039 152.805V151.773C42.4434 144.92 48.9177 138.806 55.8972 138.806H55.901Z" fill="#1D1D1B" fill-opacity="0.5"/>
<g opacity="0.05">
<path opacity="0.5" d="M42.0229 121.194V138.799C42.0229 123.29 55.0679 110.524 70.5538 110.312V104.695C59.0435 105.905 48.852 112.095 42.0229 121.194Z" fill="black" fill-opacity="0.5"/>
<path d="M42.0464 152.047C45.4089 149.581 49.4885 148.129 53.8921 148.129H70.5579V138.799H56.279C48.7366 138.799 42.5708 144.643 42.0464 152.047Z" fill="black" fill-opacity="0.5"/>
</g>
<g opacity="0.05">
<path opacity="0.5" d="M70.5538 110.312V105.211C58.9471 106.348 48.7055 112.673 42.0229 121.961V138.799C42.0229 123.29 55.0679 110.524 70.5538 110.312Z" fill="black" fill-opacity="0.5"/>
<path d="M56.2787 138.799C48.9407 138.799 42.9022 144.334 42.1001 151.453C45.4587 148.834 49.6078 147.285 54.1078 147.285H70.5538V138.803H56.2749L56.2787 138.799Z" fill="black" fill-opacity="0.5"/>
</g>
<g opacity="0.05">
<path opacity="0.5" d="M70.5538 110.312V105.724C58.843 106.783 48.5358 113.263 42.0229 122.759V138.795C42.0229 123.286 55.0679 110.52 70.5538 110.308V110.312Z" fill="black" fill-opacity="0.5"/>
<path d="M56.2788 138.799C49.1451 138.799 43.2415 144.026 42.1772 150.856C45.5166 148.086 49.7351 146.434 54.3238 146.434H70.5538V138.799H56.2749H56.2788Z" fill="black" fill-opacity="0.5"/>
</g>
<g opacity="0.05">
<path opacity="0.5" d="M70.5538 110.312V106.24C58.7234 107.218 48.3468 113.875 42.0229 123.602V138.799C42.0229 123.29 55.0679 110.523 70.5538 110.312Z" fill="black" fill-opacity="0.5"/>
<path d="M56.2787 138.799C49.3494 138.799 43.5769 143.733 42.2812 150.275C45.5936 147.351 49.8699 145.586 54.5434 145.586H70.5576V138.799H56.2787Z" fill="black" fill-opacity="0.5"/>
</g>
<g opacity="0.05">
<path opacity="0.5" d="M70.5538 110.311V106.76C58.5846 107.646 48.1271 114.51 42.0229 124.491V138.799C42.0229 123.29 55.0679 110.523 70.5538 110.311Z" fill="black" fill-opacity="0.5"/>
<path d="M56.2789 138.799C49.5578 138.799 43.928 143.441 42.4126 149.685C45.6787 146.611 50.009 144.735 54.7596 144.735H70.554V138.795H56.2751L56.2789 138.799Z" fill="black" fill-opacity="0.5"/>
</g>
<g opacity="0.05">
<path opacity="0.5" d="M70.5538 110.311V107.28C58.4265 108.073 47.8687 115.173 42.0229 125.447V138.798C42.0229 123.29 55.0679 110.523 70.5538 110.311Z" fill="black" fill-opacity="0.5"/>
<path d="M56.279 138.799C49.77 138.799 44.2867 143.152 42.5708 149.096C45.779 145.871 50.1518 143.888 54.9795 143.888H70.5579V138.799H56.279Z" fill="black" fill-opacity="0.5"/>
</g>
<g opacity="0.05">
<path opacity="0.5" d="M70.5538 110.311V107.804C58.2414 108.493 47.5641 115.878 42.0229 126.483V138.798C42.0229 123.29 55.0679 110.523 70.5538 110.311Z" fill="black" fill-opacity="0.5"/>
<path d="M56.2789 138.799C49.9897 138.799 44.653 142.867 42.752 148.51C45.8869 145.14 50.3021 143.04 55.1915 143.04H70.554V138.799H56.2751H56.2789Z" fill="black" fill-opacity="0.5"/>
</g>
<g opacity="0.05">
<path opacity="0.5" d="M70.5538 110.312V108.332C58.0139 108.909 47.1939 116.641 42.0229 127.635V138.799C42.0229 123.29 55.0679 110.523 70.5538 110.312Z" fill="black" fill-opacity="0.5"/>
<path d="M56.2787 138.799C50.2055 138.799 45.0229 142.593 42.96 147.936C46.0101 144.415 50.4522 142.193 55.4111 142.193H70.5576V138.799H56.2787Z" fill="black" fill-opacity="0.5"/>
</g>
<g opacity="0.05">
<path opacity="0.5" d="M70.5538 110.312V108.871C57.7247 109.33 46.7196 117.496 42.0229 128.972V138.799C42.0229 123.29 55.0679 110.524 70.5538 110.312Z" fill="black" fill-opacity="0.5"/>
<path d="M56.2789 138.799C50.4254 138.799 45.3972 142.324 43.1992 147.362C46.1414 143.691 50.6144 141.345 55.6311 141.345H70.5578V138.799H56.2789Z" fill="black" fill-opacity="0.5"/>
</g>
</g>
<path d="M192.62 164V154.48H220.9C228.46 154.48 235.133 152.847 240.92 149.58C246.707 146.22 251.233 141.647 254.5 135.86C257.767 129.98 259.4 123.26 259.4 115.7C259.4 108.14 257.767 101.467 254.5 95.68C251.233 89.8933 246.707 85.3667 240.92 82.1C235.133 78.74 228.46 77.06 220.9 77.06H192.9V67.68H221.18C228.18 67.68 234.62 68.8933 240.5 71.32C246.473 73.6533 251.653 77.0133 256.04 81.4C260.52 85.6933 263.973 90.78 266.4 96.66C268.827 102.447 270.04 108.84 270.04 115.84C270.04 122.653 268.827 129 266.4 134.88C263.973 140.76 260.567 145.893 256.18 150.28C251.793 154.573 246.613 157.933 240.64 160.36C234.76 162.787 228.367 164 221.46 164H192.62ZM186.32 164V67.68H196.54V164H186.32ZM320.616 165.4C313.989 165.4 308.063 163.907 302.836 160.92C297.609 157.933 293.456 153.827 290.376 148.6C287.389 143.373 285.896 137.493 285.896 130.96C285.896 124.52 287.389 118.733 290.376 113.6C293.363 108.373 297.423 104.267 302.556 101.28C307.689 98.2933 313.429 96.8 319.776 96.8C325.749 96.8 331.023 98.1533 335.596 100.86C340.263 103.567 343.903 107.347 346.516 112.2C349.223 116.96 350.576 122.467 350.576 128.72C350.576 129.467 350.529 130.353 350.436 131.38C350.343 132.313 350.156 133.433 349.876 134.74H292.896V126.34H344.556L341.056 129.42C341.149 124.567 340.309 120.413 338.536 116.96C336.856 113.413 334.383 110.707 331.116 108.84C327.943 106.88 324.069 105.9 319.496 105.9C314.736 105.9 310.583 106.927 307.036 108.98C303.489 111.033 300.689 113.927 298.636 117.66C296.676 121.3 295.696 125.64 295.696 130.68C295.696 135.72 296.723 140.153 298.776 143.98C300.923 147.807 303.863 150.793 307.596 152.94C311.423 155.087 315.809 156.16 320.756 156.16C324.769 156.16 328.456 155.46 331.816 154.06C335.176 152.567 338.023 150.373 340.356 147.48L346.656 153.92C343.576 157.56 339.749 160.407 335.176 162.46C330.696 164.42 325.843 165.4 320.616 165.4ZM390.234 164L359.854 98.2H370.774L396.394 155.74H390.234L415.994 98.2H426.634L395.974 164H390.234ZM451.935 164V70.48H461.735V164H451.935ZM435.275 107.02V98.2H478.255V107.02H435.275ZM522.05 165.4C515.703 165.4 509.917 163.86 504.69 160.78C499.557 157.7 495.45 153.547 492.37 148.32C489.383 143.093 487.89 137.26 487.89 130.82C487.89 124.473 489.383 118.733 492.37 113.6C495.45 108.467 499.557 104.407 504.69 101.42C509.917 98.34 515.703 96.8 522.05 96.8C528.49 96.8 534.277 98.2933 539.41 101.28C544.543 104.267 548.603 108.373 551.59 113.6C554.67 118.733 556.21 124.473 556.21 130.82C556.21 137.353 554.67 143.233 551.59 148.46C548.603 153.593 544.543 157.7 539.41 160.78C534.277 163.86 528.49 165.4 522.05 165.4ZM522.05 155.88C526.717 155.88 530.823 154.807 534.37 152.66C538.01 150.513 540.857 147.527 542.91 143.7C545.057 139.873 546.13 135.58 546.13 130.82C546.13 126.06 545.057 121.86 542.91 118.22C540.857 114.487 538.01 111.547 534.37 109.4C530.823 107.253 526.717 106.18 522.05 106.18C517.477 106.18 513.37 107.253 509.73 109.4C506.09 111.547 503.243 114.487 501.19 118.22C499.137 121.86 498.11 126.06 498.11 130.82C498.11 135.673 499.137 140.013 501.19 143.84C503.243 147.573 506.09 150.513 509.73 152.66C513.37 154.807 517.477 155.88 522.05 155.88ZM604.42 165.4C598.073 165.4 592.287 163.86 587.06 160.78C581.927 157.7 577.82 153.547 574.74 148.32C571.753 143.093 570.26 137.26 570.26 130.82C570.26 124.473 571.753 118.733 574.74 113.6C577.82 108.467 581.927 104.407 587.06 101.42C592.287 98.34 598.073 96.8 604.42 96.8C610.86 96.8 616.647 98.2933 621.78 101.28C626.913 104.267 630.973 108.373 633.96 113.6C637.04 118.733 638.58 124.473 638.58 130.82C638.58 137.353 637.04 143.233 633.96 148.46C630.973 153.593 626.913 157.7 621.78 160.78C616.647 163.86 610.86 165.4 604.42 165.4ZM604.42 155.88C609.087 155.88 613.193 154.807 616.74 152.66C620.38 150.513 623.227 147.527 625.28 143.7C627.427 139.873 628.5 135.58 628.5 130.82C628.5 126.06 627.427 121.86 625.28 118.22C623.227 114.487 620.38 111.547 616.74 109.4C613.193 107.253 609.087 106.18 604.42 106.18C599.847 106.18 595.74 107.253 592.1 109.4C588.46 111.547 585.613 114.487 583.56 118.22C581.507 121.86 580.48 126.06 580.48 130.82C580.48 135.673 581.507 140.013 583.56 143.84C585.613 147.573 588.46 150.513 592.1 152.66C595.74 154.807 599.847 155.88 604.42 155.88ZM656.97 164V64.88H666.77V164H656.97ZM709.598 165.4C706.052 165.4 702.645 164.933 699.378 164C696.112 162.973 693.125 161.573 690.418 159.8C687.805 158.027 685.518 155.927 683.558 153.5L689.858 147.06C692.472 150.233 695.412 152.613 698.678 154.2C702.038 155.693 705.772 156.44 709.878 156.44C714.265 156.44 717.672 155.6 720.098 153.92C722.618 152.24 723.878 149.907 723.878 146.92C723.878 144.12 722.992 141.927 721.218 140.34C719.445 138.753 717.158 137.493 714.358 136.56C711.652 135.627 708.758 134.74 705.678 133.9C702.598 132.967 699.658 131.847 696.858 130.54C694.058 129.14 691.772 127.227 689.998 124.8C688.318 122.373 687.478 119.2 687.478 115.28C687.478 111.547 688.365 108.327 690.138 105.62C692.005 102.82 694.618 100.673 697.978 99.18C701.432 97.5933 705.492 96.8 710.158 96.8C715.105 96.8 719.585 97.6867 723.598 99.46C727.612 101.233 730.832 103.847 733.258 107.3L726.958 113.6C724.998 111.08 722.525 109.167 719.538 107.86C716.645 106.46 713.378 105.76 709.738 105.76C705.538 105.76 702.318 106.6 700.078 108.28C697.932 109.867 696.858 111.967 696.858 114.58C696.858 117.1 697.745 119.107 699.518 120.6C701.292 122 703.532 123.167 706.238 124.1C709.038 124.94 711.978 125.827 715.058 126.76C718.138 127.6 721.078 128.767 723.878 130.26C726.678 131.66 728.918 133.62 730.598 136.14C732.372 138.567 733.258 141.88 733.258 146.08C733.258 151.96 731.112 156.673 726.818 160.22C722.618 163.673 716.878 165.4 709.598 165.4Z" fill="#E72264"/>
<path d="M192.62 164H188.12C188.12 166.485 190.135 168.5 192.62 168.5V164ZM192.62 154.48V149.98C190.135 149.98 188.12 151.995 188.12 154.48H192.62ZM240.92 149.58L243.132 153.499C243.148 153.49 243.164 153.481 243.18 153.472L240.92 149.58ZM254.5 135.86L258.419 138.072C258.424 138.063 258.429 138.054 258.434 138.045L254.5 135.86ZM254.5 95.68L258.419 93.4678L254.5 95.68ZM240.92 82.1L238.66 85.9915C238.676 86.0007 238.692 86.0097 238.708 86.0187L240.92 82.1ZM192.9 77.06H188.4C188.4 79.5453 190.415 81.56 192.9 81.56V77.06ZM192.9 67.68V63.18C190.415 63.18 188.4 65.1947 188.4 67.68H192.9ZM240.5 71.32L238.783 75.4797C238.81 75.4906 238.836 75.5012 238.863 75.5115L240.5 71.32ZM256.04 81.4L252.858 84.582C252.881 84.6045 252.903 84.6269 252.926 84.6489L256.04 81.4ZM266.4 96.66L262.24 98.3767C262.244 98.3846 262.247 98.3924 262.25 98.4003L266.4 96.66ZM266.4 134.88L270.56 136.597L266.4 134.88ZM256.18 150.28L259.328 153.496C259.339 153.485 259.351 153.473 259.362 153.462L256.18 150.28ZM240.64 160.36L238.946 156.191C238.939 156.194 238.931 156.197 238.923 156.2L240.64 160.36ZM186.32 164H181.82C181.82 166.485 183.835 168.5 186.32 168.5V164ZM186.32 67.68V63.18C183.835 63.18 181.82 65.1947 181.82 67.68H186.32ZM196.54 67.68H201.04C201.04 65.1947 199.025 63.18 196.54 63.18V67.68ZM196.54 164V168.5C199.025 168.5 201.04 166.485 201.04 164H196.54ZM197.12 164V154.48H188.12V164H197.12ZM192.62 158.98H220.9V149.98H192.62V158.98ZM220.9 158.98C229.127 158.98 236.582 157.196 243.132 153.499L238.708 145.661C233.685 148.497 227.793 149.98 220.9 149.98V158.98ZM243.18 153.472C249.654 149.712 254.755 144.561 258.419 138.072L250.581 133.648C247.711 138.732 243.76 142.728 238.66 145.688L243.18 153.472ZM258.434 138.045C262.116 131.417 263.9 123.928 263.9 115.7H254.9C254.9 122.592 253.417 128.543 250.566 133.675L258.434 138.045ZM263.9 115.7C263.9 107.473 262.116 100.018 258.419 93.4678L250.581 97.8922C253.417 102.915 254.9 108.807 254.9 115.7H263.9ZM258.419 93.4678C254.749 86.9675 249.632 81.8508 243.132 78.1813L238.708 86.0187C243.781 88.8825 247.717 92.8191 250.581 97.8922L258.419 93.4678ZM243.18 78.2084C236.621 74.4003 229.149 72.56 220.9 72.56V81.56C227.771 81.56 233.646 83.0797 238.66 85.9915L243.18 78.2084ZM220.9 72.56H192.9V81.56H220.9V72.56ZM197.4 77.06V67.68H188.4V77.06H197.4ZM192.9 72.18H221.18V63.18H192.9V72.18ZM221.18 72.18C227.65 72.18 233.5 73.2993 238.783 75.4797L242.217 67.1603C235.74 64.4874 228.71 63.18 221.18 63.18V72.18ZM238.863 75.5115C244.277 77.6265 248.926 80.6499 252.858 84.582L259.222 78.218C254.381 73.3768 248.67 69.6802 242.137 67.1284L238.863 75.5115ZM252.926 84.6489C256.944 88.4987 260.046 93.0596 262.24 98.3767L270.56 94.9433C267.901 88.5003 264.096 82.888 259.154 78.1511L252.926 84.6489ZM262.25 98.4003C264.42 103.576 265.54 109.368 265.54 115.84H274.54C274.54 108.312 273.233 101.318 270.55 94.9197L262.25 98.4003ZM265.54 115.84C265.54 122.107 264.427 127.866 262.24 133.163L270.56 136.597C273.227 130.134 274.54 123.2 274.54 115.84H265.54ZM262.24 133.163C260.034 138.509 256.955 143.141 252.998 147.098L259.362 153.462C264.179 148.645 267.913 143.011 270.56 136.597L262.24 133.163ZM253.032 147.064C249.085 150.928 244.405 153.973 238.946 156.191L242.334 164.529C248.821 161.894 254.502 158.219 259.328 153.496L253.032 147.064ZM238.923 156.2C233.633 158.384 227.829 159.5 221.46 159.5V168.5C228.905 168.5 235.887 167.19 242.357 164.52L238.923 156.2ZM221.46 159.5H192.62V168.5H221.46V159.5ZM190.82 164V67.68H181.82V164H190.82ZM186.32 72.18H196.54V63.18H186.32V72.18ZM192.04 67.68V164H201.04V67.68H192.04ZM196.54 159.5H186.32V168.5H196.54V159.5ZM302.836 160.92L305.069 157.013L302.836 160.92ZM290.376 148.6L286.469 150.833C286.479 150.85 286.489 150.867 286.499 150.885L290.376 148.6ZM290.376 113.6L294.266 115.863C294.272 115.853 294.277 115.843 294.283 115.833L290.376 113.6ZM335.596 100.86L333.304 104.733C333.316 104.739 333.327 104.746 333.338 104.753L335.596 100.86ZM346.516 112.2L342.554 114.333C342.57 114.364 342.587 114.394 342.604 114.424L346.516 112.2ZM350.436 131.38L354.914 131.828C354.915 131.814 354.916 131.801 354.918 131.787L350.436 131.38ZM349.876 134.74V139.24C351.998 139.24 353.832 137.758 354.276 135.683L349.876 134.74ZM292.896 134.74H288.396C288.396 137.225 290.411 139.24 292.896 139.24V134.74ZM292.896 126.34V121.84C290.411 121.84 288.396 123.855 288.396 126.34H292.896ZM344.556 126.34L347.529 129.718C348.935 128.481 349.427 126.503 348.766 124.751C348.105 122.999 346.429 121.84 344.556 121.84V126.34ZM341.056 129.42L336.557 129.333C336.523 131.117 337.545 132.752 339.163 133.502C340.781 134.253 342.69 133.977 344.029 132.798L341.056 129.42ZM338.536 116.96L334.469 118.886C334.49 118.93 334.511 118.973 334.533 119.016L338.536 116.96ZM331.116 108.84L328.751 112.669C328.795 112.696 328.839 112.722 328.883 112.747L331.116 108.84ZM307.036 108.98L309.291 112.874L307.036 108.98ZM298.636 117.66L294.693 115.491C294.687 115.503 294.68 115.515 294.674 115.527L298.636 117.66ZM298.776 143.98L294.811 146.108C294.824 146.132 294.838 146.157 294.851 146.182L298.776 143.98ZM307.596 152.94L305.353 156.841C305.367 156.849 305.381 156.857 305.394 156.865L307.596 152.94ZM331.816 154.06L333.547 158.214C333.579 158.2 333.612 158.186 333.644 158.172L331.816 154.06ZM340.356 147.48L343.573 144.333C342.674 143.414 341.425 142.924 340.141 142.985C338.857 143.047 337.66 143.654 336.853 144.655L340.356 147.48ZM346.656 153.92L350.091 156.827C351.591 155.055 351.496 152.433 349.873 150.773L346.656 153.92ZM335.176 162.46L336.98 166.583C336.993 166.577 337.006 166.571 337.019 166.565L335.176 162.46ZM320.616 160.9C314.692 160.9 309.548 159.573 305.069 157.013L300.603 164.827C306.577 168.241 313.287 169.9 320.616 169.9V160.9ZM305.069 157.013C300.528 154.418 296.939 150.873 294.253 146.315L286.499 150.885C289.974 156.78 294.691 161.449 300.603 164.827L305.069 157.013ZM294.283 146.367C291.718 141.878 290.396 136.779 290.396 130.96H281.396C281.396 138.208 283.061 144.869 286.469 150.833L294.283 146.367ZM290.396 130.96C290.396 125.246 291.712 120.252 294.266 115.863L286.487 111.337C283.067 117.215 281.396 123.794 281.396 130.96H290.396ZM294.283 115.833C296.883 111.283 300.38 107.752 304.819 105.17L300.293 97.3904C294.466 100.781 289.843 105.463 286.469 111.367L294.283 115.833ZM304.819 105.17C309.218 102.61 314.168 101.3 319.776 101.3V92.3C312.691 92.3 306.161 93.9764 300.293 97.3904L304.819 105.17ZM319.776 101.3C325.045 101.3 329.508 102.486 333.304 104.733L337.888 96.9874C332.538 93.8209 326.454 92.3 319.776 92.3V101.3ZM333.338 104.753C337.269 107.032 340.326 110.196 342.554 114.333L350.478 110.067C347.479 104.497 343.257 100.101 337.854 96.9674L333.338 104.753ZM342.604 114.424C344.873 118.415 346.076 123.134 346.076 128.72H355.076C355.076 121.799 353.572 115.505 350.428 109.976L342.604 114.424ZM346.076 128.72C346.076 129.291 346.04 130.035 345.955 130.973L354.918 131.787C355.019 130.672 355.076 129.643 355.076 128.72H346.076ZM345.958 130.932C345.887 131.646 345.734 132.591 345.476 133.797L354.276 135.683C354.578 134.275 354.798 132.981 354.914 131.828L345.958 130.932ZM349.876 130.24H292.896V139.24H349.876V130.24ZM297.396 134.74V126.34H288.396V134.74H297.396ZM292.896 130.84H344.556V121.84H292.896V130.84ZM341.583 122.962L338.083 126.042L344.029 132.798L347.529 129.718L341.583 122.962ZM345.555 129.507C345.659 124.092 344.727 119.165 342.539 114.904L334.533 119.016C335.892 121.661 336.639 125.041 336.557 129.333L345.555 129.507ZM342.603 115.034C340.547 110.693 337.451 107.277 333.349 104.933L328.883 112.747C331.315 114.136 333.166 116.134 334.469 118.886L342.603 115.034ZM333.481 105.011C329.452 102.523 324.716 101.4 319.496 101.4V110.4C323.423 110.4 326.434 111.237 328.751 112.669L333.481 105.011ZM319.496 101.4C314.074 101.4 309.117 102.575 304.781 105.086L309.291 112.874C312.048 111.278 315.399 110.4 319.496 110.4V101.4ZM304.781 105.086C300.496 107.566 297.125 111.07 294.693 115.491L302.579 119.829C304.254 116.784 306.482 114.5 309.291 112.874L304.781 105.086ZM294.674 115.527C292.292 119.951 291.196 125.057 291.196 130.68H300.196C300.196 126.223 301.061 122.649 302.598 119.793L294.674 115.527ZM291.196 130.68C291.196 136.343 292.354 141.529 294.811 146.108L302.741 141.852C301.092 138.778 300.196 135.097 300.196 130.68H291.196ZM294.851 146.182C297.387 150.702 300.902 154.282 305.353 156.841L309.839 149.039C306.823 147.305 304.458 144.911 302.701 141.778L294.851 146.182ZM305.394 156.865C309.976 159.435 315.138 160.66 320.756 160.66V151.66C316.481 151.66 312.87 150.739 309.798 149.015L305.394 156.865ZM320.756 160.66C325.302 160.66 329.585 159.865 333.547 158.214L330.085 149.906C327.327 151.055 324.236 151.66 320.756 151.66V160.66ZM333.644 158.172C337.664 156.385 341.082 153.748 343.859 150.305L336.853 144.655C334.963 146.999 332.688 148.748 329.988 149.948L333.644 158.172ZM337.139 150.627L343.439 157.067L349.873 150.773L343.573 144.333L337.139 150.627ZM343.221 151.013C340.598 154.113 337.325 156.562 333.333 158.355L337.019 166.565C342.174 164.251 346.555 161.007 350.091 156.827L343.221 151.013ZM333.372 158.337C329.5 160.032 325.265 160.9 320.616 160.9V169.9C326.42 169.9 331.893 168.808 336.98 166.583L333.372 158.337ZM390.234 164L386.149 165.886C386.884 167.48 388.479 168.5 390.234 168.5V164ZM359.854 98.2V93.7C358.32 93.7 356.891 94.4822 356.064 95.775C355.237 97.0678 355.125 98.6929 355.769 100.086L359.854 98.2ZM370.774 98.2L374.885 96.3696C374.162 94.746 372.552 93.7 370.774 93.7V98.2ZM396.394 155.74V160.24C397.918 160.24 399.339 159.469 400.168 158.191C400.998 156.913 401.125 155.302 400.505 153.91L396.394 155.74ZM390.234 155.74L386.127 153.901C385.504 155.294 385.628 156.907 386.458 158.187C387.287 159.467 388.709 160.24 390.234 160.24V155.74ZM415.994 98.2V93.7C414.22 93.7 412.612 94.7422 411.887 96.3613L415.994 98.2ZM426.634 98.2L430.713 100.101C431.363 98.707 431.256 97.0782 430.429 95.7816C429.603 94.485 428.172 93.7 426.634 93.7V98.2ZM395.974 164V168.5C397.724 168.5 399.314 167.486 400.053 165.901L395.974 164ZM394.32 162.114L363.94 96.3137L355.769 100.086L386.149 165.886L394.32 162.114ZM359.854 102.7H370.774V93.7H359.854V102.7ZM366.663 100.03L392.283 157.57L400.505 153.91L374.885 96.3696L366.663 100.03ZM396.394 151.24H390.234V160.24H396.394V151.24ZM394.342 157.579L420.102 100.039L411.887 96.3613L386.127 153.901L394.342 157.579ZM415.994 102.7H426.634V93.7H415.994V102.7ZM422.555 96.2994L391.895 162.099L400.053 165.901L430.713 100.101L422.555 96.2994ZM395.974 159.5H390.234V168.5H395.974V159.5ZM451.935 164H447.435C447.435 166.485 449.45 168.5 451.935 168.5V164ZM451.935 70.48V65.98C449.45 65.98 447.435 67.9947 447.435 70.48H451.935ZM461.735 70.48H466.235C466.235 67.9947 464.22 65.98 461.735 65.98V70.48ZM461.735 164V168.5C464.22 168.5 466.235 166.485 466.235 164H461.735ZM435.275 107.02H430.775C430.775 109.505 432.79 111.52 435.275 111.52V107.02ZM435.275 98.2V93.7C432.79 93.7 430.775 95.7147 430.775 98.2H435.275ZM478.255 98.2H482.755C482.755 95.7147 480.74 93.7 478.255 93.7V98.2ZM478.255 107.02V111.52C480.74 111.52 482.755 109.505 482.755 107.02H478.255ZM456.435 164V70.48H447.435V164H456.435ZM451.935 74.98H461.735V65.98H451.935V74.98ZM457.235 70.48V164H466.235V70.48H457.235ZM461.735 159.5H451.935V168.5H461.735V159.5ZM439.775 107.02V98.2H430.775V107.02H439.775ZM435.275 102.7H478.255V93.7H435.275V102.7ZM473.755 98.2V107.02H482.755V98.2H473.755ZM478.255 102.52H435.275V111.52H478.255V102.52ZM504.69 160.78L502.375 164.639C502.385 164.645 502.395 164.651 502.405 164.657L504.69 160.78ZM492.37 148.32L488.463 150.553C488.473 150.57 488.483 150.587 488.493 150.605L492.37 148.32ZM492.37 113.6L488.511 111.285C488.501 111.302 488.49 111.32 488.48 111.337L492.37 113.6ZM504.69 101.42L506.953 105.31C506.96 105.305 506.967 105.301 506.974 105.297L504.69 101.42ZM551.59 113.6L547.683 115.833C547.699 115.86 547.715 115.888 547.731 115.915L551.59 113.6ZM551.59 148.46L547.713 146.175C547.709 146.183 547.704 146.19 547.7 146.197L551.59 148.46ZM539.41 160.78L537.095 156.921L539.41 160.78ZM534.37 152.66L532.084 148.784C532.069 148.793 532.054 148.801 532.04 148.81L534.37 152.66ZM542.91 143.7L538.985 141.498C538.971 141.523 538.958 141.548 538.945 141.572L542.91 143.7ZM542.91 118.22L538.967 120.389C538.989 120.428 539.011 120.467 539.034 120.506L542.91 118.22ZM534.37 109.4L532.04 113.25C532.054 113.259 532.069 113.267 532.084 113.276L534.37 109.4ZM501.19 118.22L505.109 120.431C505.117 120.417 505.125 120.403 505.133 120.389L501.19 118.22ZM501.19 143.84L497.225 145.968C497.232 145.981 497.239 145.995 497.247 146.009L501.19 143.84ZM509.73 152.66L507.444 156.536L509.73 152.66ZM522.05 160.9C516.468 160.9 511.476 159.556 506.974 156.903L502.405 164.657C508.357 168.164 514.938 169.9 522.05 169.9V160.9ZM507.005 156.921C502.524 154.233 498.951 150.624 496.247 146.035L488.493 150.605C491.949 156.469 496.589 161.167 502.375 164.639L507.005 156.921ZM496.277 146.087C493.706 141.588 492.39 136.533 492.39 130.82H483.39C483.39 137.987 485.06 144.599 488.463 150.553L496.277 146.087ZM492.39 130.82C492.39 125.212 493.7 120.262 496.259 115.863L488.48 111.337C485.066 117.205 483.39 123.735 483.39 130.82H492.39ZM496.229 115.915C498.921 111.427 502.481 107.911 506.953 105.31L502.427 97.5304C496.632 100.902 491.978 105.506 488.511 111.285L496.229 115.915ZM506.974 105.297C511.476 102.644 516.468 101.3 522.05 101.3V92.3C514.938 92.3 508.357 94.0359 502.405 97.5431L506.974 105.297ZM522.05 101.3C527.764 101.3 532.758 102.616 537.147 105.17L541.673 97.3904C535.795 93.9705 529.216 92.3 522.05 92.3V101.3ZM537.147 105.17C541.586 107.752 545.083 111.283 547.683 115.833L555.497 111.367C552.123 105.463 547.5 100.781 541.673 97.3904L537.147 105.17ZM547.731 115.915C550.366 120.307 551.71 125.238 551.71 130.82H560.71C560.71 123.709 558.974 117.16 555.449 111.285L547.731 115.915ZM551.71 130.82C551.71 136.614 550.354 141.694 547.713 146.175L555.467 150.745C558.986 144.773 560.71 138.093 560.71 130.82H551.71ZM547.7 146.197C545.099 150.669 541.582 154.229 537.095 156.921L541.725 164.639C547.504 161.171 552.108 156.518 555.479 150.723L547.7 146.197ZM537.095 156.921C532.714 159.55 527.738 160.9 522.05 160.9V169.9C529.241 169.9 535.839 168.17 541.725 164.639L537.095 156.921ZM522.05 160.38C527.432 160.38 532.365 159.133 536.7 156.51L532.04 148.81C529.281 150.48 526.001 151.38 522.05 151.38V160.38ZM536.656 156.536C541.025 153.959 544.444 150.359 546.875 145.828L538.945 141.572C537.269 144.695 534.994 147.067 532.084 148.784L536.656 156.536ZM546.835 145.902C549.39 141.346 550.63 136.284 550.63 130.82H541.63C541.63 134.876 540.723 138.401 538.985 141.498L546.835 145.902ZM550.63 130.82C550.63 125.36 549.391 120.351 546.786 115.934L539.034 120.506C540.722 123.369 541.63 126.76 541.63 130.82H550.63ZM546.853 116.051C544.414 111.617 540.997 108.084 536.656 105.524L532.084 113.276C535.022 115.009 537.299 117.357 538.967 120.389L546.853 116.051ZM536.7 105.55C532.365 102.927 527.432 101.68 522.05 101.68V110.68C526.001 110.68 529.281 111.58 532.04 113.25L536.7 105.55ZM522.05 101.68C516.741 101.68 511.833 102.935 507.444 105.524L512.016 113.276C514.907 111.571 518.212 110.68 522.05 110.68V101.68ZM507.444 105.524C503.102 108.084 499.686 111.617 497.247 116.051L505.133 120.389C506.8 117.357 509.077 115.009 512.016 113.276L507.444 105.524ZM497.27 116.009C494.786 120.413 493.61 125.395 493.61 130.82H502.61C502.61 126.725 503.487 123.307 505.109 120.431L497.27 116.009ZM493.61 130.82C493.61 136.327 494.781 141.413 497.225 145.968L505.155 141.712C503.492 138.614 502.61 135.02 502.61 130.82H493.61ZM497.247 146.009C499.686 150.443 503.102 153.976 507.444 156.536L512.016 148.784C509.077 147.051 506.8 144.703 505.133 141.671L497.247 146.009ZM507.444 156.536C511.833 159.125 516.741 160.38 522.05 160.38V151.38C518.212 151.38 514.907 150.489 512.016 148.784L507.444 156.536ZM587.06 160.78L584.745 164.639C584.755 164.645 584.765 164.651 584.776 164.657L587.06 160.78ZM574.74 148.32L570.833 150.553C570.843 150.57 570.853 150.587 570.863 150.605L574.74 148.32ZM574.74 113.6L570.881 111.285C570.871 111.302 570.861 111.32 570.851 111.337L574.74 113.6ZM587.06 101.42L589.323 105.31C589.33 105.305 589.338 105.301 589.345 105.297L587.06 101.42ZM633.96 113.6L630.053 115.833C630.069 115.86 630.085 115.888 630.101 115.915L633.96 113.6ZM633.96 148.46L630.083 146.175C630.079 146.183 630.075 146.19 630.071 146.197L633.96 148.46ZM621.78 160.78L619.465 156.921L621.78 160.78ZM616.74 152.66L614.454 148.784C614.439 148.793 614.425 148.801 614.41 148.81L616.74 152.66ZM625.28 143.7L621.356 141.498C621.342 141.523 621.328 141.548 621.315 141.572L625.28 143.7ZM625.28 118.22L621.337 120.389C621.359 120.428 621.381 120.467 621.404 120.506L625.28 118.22ZM616.74 109.4L614.41 113.25C614.425 113.259 614.439 113.267 614.454 113.276L616.74 109.4ZM583.56 118.22L587.48 120.431C587.487 120.417 587.495 120.403 587.503 120.389L583.56 118.22ZM583.56 143.84L579.595 145.968C579.602 145.981 579.61 145.995 579.617 146.009L583.56 143.84ZM592.1 152.66L589.814 156.536L592.1 152.66ZM604.42 160.9C598.838 160.9 593.847 159.556 589.345 156.903L584.776 164.657C590.727 168.164 597.309 169.9 604.42 169.9V160.9ZM589.375 156.921C584.895 154.233 581.321 150.624 578.617 146.035L570.863 150.605C574.319 156.469 578.959 161.167 584.745 164.639L589.375 156.921ZM578.647 146.087C576.076 141.588 574.76 136.533 574.76 130.82H565.76C565.76 137.987 567.431 144.599 570.833 150.553L578.647 146.087ZM574.76 130.82C574.76 125.212 576.07 120.262 578.63 115.863L570.851 111.337C567.437 117.205 565.76 123.735 565.76 130.82H574.76ZM578.599 115.915C581.292 111.427 584.852 107.911 589.323 105.31L584.797 97.5304C579.002 100.902 574.349 105.506 570.881 111.285L578.599 115.915ZM589.345 105.297C593.847 102.644 598.838 101.3 604.42 101.3V92.3C597.309 92.3 590.727 94.0359 584.776 97.5431L589.345 105.297ZM604.42 101.3C610.134 101.3 615.128 102.616 619.517 105.17L624.043 97.3904C618.165 93.9705 611.586 92.3 604.42 92.3V101.3ZM619.517 105.17C623.957 107.752 627.454 111.283 630.053 115.833L637.867 111.367C634.493 105.463 629.87 100.781 624.043 97.3904L619.517 105.17ZM630.101 115.915C632.736 120.307 634.08 125.238 634.08 130.82H643.08C643.08 123.709 641.344 117.16 637.819 111.285L630.101 115.915ZM634.08 130.82C634.08 136.614 632.724 141.694 630.083 146.175L637.837 150.745C641.356 144.773 643.08 138.093 643.08 130.82H634.08ZM630.071 146.197C627.469 150.669 623.953 154.229 619.465 156.921L624.095 164.639C629.874 161.171 634.478 156.518 637.85 150.723L630.071 146.197ZM619.465 156.921C615.084 159.55 610.109 160.9 604.42 160.9V169.9C611.612 169.9 618.21 168.17 624.095 164.639L619.465 156.921ZM604.42 160.38C609.803 160.38 614.736 159.133 619.07 156.51L614.41 148.81C611.651 150.48 608.371 151.38 604.42 151.38V160.38ZM619.026 156.536C623.396 153.959 626.814 150.359 629.245 145.828L621.315 141.572C619.64 144.695 617.365 147.067 614.454 148.784L619.026 156.536ZM629.205 145.902C631.76 141.346 633 136.284 633 130.82H624C624 134.876 623.093 138.401 621.356 141.498L629.205 145.902ZM633 130.82C633 125.36 631.761 120.351 629.156 115.934L621.404 120.506C623.093 123.369 624 126.76 624 130.82H633ZM629.223 116.051C626.784 111.617 623.368 108.084 619.026 105.524L614.454 113.276C617.393 115.009 619.67 117.357 621.337 120.389L629.223 116.051ZM619.07 105.55C614.736 102.927 609.803 101.68 604.42 101.68V110.68C608.371 110.68 611.651 111.58 614.41 113.25L619.07 105.55ZM604.42 101.68C599.111 101.68 594.203 102.935 589.814 105.524L594.386 113.276C597.277 111.571 600.582 110.68 604.42 110.68V101.68ZM589.814 105.524C585.473 108.084 582.056 111.617 579.617 116.051L587.503 120.389C589.171 117.357 591.448 115.009 594.386 113.276L589.814 105.524ZM579.641 116.009C577.156 120.413 575.98 125.395 575.98 130.82H584.98C584.98 126.725 585.857 123.307 587.48 120.431L579.641 116.009ZM575.98 130.82C575.98 136.327 577.151 141.413 579.595 145.968L587.525 141.712C585.863 138.614 584.98 135.02 584.98 130.82H575.98ZM579.617 146.009C582.056 150.443 585.473 153.976 589.814 156.536L594.386 148.784C591.448 147.051 589.171 144.703 587.503 141.671L579.617 146.009ZM589.814 156.536C594.203 159.125 599.111 160.38 604.42 160.38V151.38C600.582 151.38 597.277 150.489 594.386 148.784L589.814 156.536ZM656.97 164H652.47C652.47 166.485 654.485 168.5 656.97 168.5V164ZM656.97 64.88V60.38C654.485 60.38 652.47 62.3947 652.47 64.88H656.97ZM666.77 64.88H671.27C671.27 62.3947 669.256 60.38 666.77 60.38V64.88ZM666.77 164V168.5C669.256 168.5 671.27 166.485 671.27 164H666.77ZM661.47 164V64.88H652.47V164H661.47ZM656.97 69.38H666.77V60.38H656.97V69.38ZM662.27 64.88V164H671.27V64.88H662.27ZM666.77 159.5H656.97V168.5H666.77V159.5ZM699.378 164L698.029 168.293C698.067 168.305 698.104 168.316 698.142 168.327L699.378 164ZM690.418 159.8L687.892 163.524C687.912 163.537 687.932 163.551 687.952 163.564L690.418 159.8ZM683.558 153.5L680.342 150.353C678.746 151.985 678.624 154.552 680.058 156.328L683.558 153.5ZM689.858 147.06L693.332 144.199C692.52 143.213 691.327 142.619 690.051 142.564C688.774 142.51 687.535 143 686.642 143.913L689.858 147.06ZM698.678 154.2L696.712 158.248C696.758 158.27 696.804 158.291 696.851 158.312L698.678 154.2ZM720.098 153.92L717.602 150.176C717.58 150.19 717.559 150.205 717.537 150.22L720.098 153.92ZM721.218 140.34L724.219 136.986L721.218 140.34ZM714.358 136.56L712.891 140.814C712.906 140.819 712.921 140.824 712.935 140.829L714.358 136.56ZM705.678 133.9L704.373 138.207C704.414 138.219 704.454 138.23 704.494 138.241L705.678 133.9ZM696.858 130.54L694.846 134.565C694.882 134.583 694.919 134.601 694.955 134.618L696.858 130.54ZM689.998 124.8L686.299 127.361C686.32 127.393 686.343 127.424 686.365 127.455L689.998 124.8ZM690.138 105.62L686.394 103.124C686.388 103.134 686.381 103.144 686.374 103.154L690.138 105.62ZM697.978 99.18L699.806 103.292C699.823 103.285 699.84 103.277 699.857 103.269L697.978 99.18ZM723.598 99.46L725.417 95.3439V95.3439L723.598 99.46ZM733.258 107.3L736.44 110.482C737.987 108.936 738.198 106.502 736.94 104.713L733.258 107.3ZM726.958 113.6L723.406 116.363C724.199 117.382 725.391 118.011 726.679 118.091C727.967 118.172 729.228 117.695 730.14 116.782L726.958 113.6ZM719.538 107.86L717.578 111.911C717.63 111.936 717.682 111.96 717.735 111.983L719.538 107.86ZM700.078 108.28L702.753 111.899C702.762 111.893 702.77 111.886 702.778 111.88L700.078 108.28ZM699.518 120.6L696.62 124.042C696.656 124.073 696.693 124.103 696.73 124.132L699.518 120.6ZM706.238 124.1L704.771 128.354C704.829 128.374 704.887 128.393 704.945 128.41L706.238 124.1ZM715.058 126.76L713.753 131.067C713.794 131.079 713.834 131.09 713.874 131.101L715.058 126.76ZM723.878 130.26L721.761 134.231C721.796 134.249 721.831 134.267 721.866 134.285L723.878 130.26ZM730.598 136.14L726.854 138.636C726.89 138.69 726.927 138.743 726.965 138.795L730.598 136.14ZM726.818 160.22L729.676 163.696L729.684 163.689L726.818 160.22ZM709.598 160.9C706.451 160.9 703.462 160.487 700.615 159.673L698.142 168.327C701.828 169.38 705.652 169.9 709.598 169.9V160.9ZM700.728 159.707C697.833 158.797 695.225 157.57 692.885 156.036L687.952 163.564C691.025 165.577 694.391 167.149 698.029 168.293L700.728 159.707ZM692.945 156.076C690.694 154.549 688.737 152.75 687.059 150.672L680.058 156.328C682.3 159.104 684.916 161.504 687.892 163.524L692.945 156.076ZM686.775 156.647L693.075 150.207L686.642 143.913L680.342 150.353L686.775 156.647ZM686.385 149.921C689.355 153.527 692.791 156.343 696.712 158.248L700.645 150.152C698.032 148.883 695.589 146.939 693.332 144.199L686.385 149.921ZM696.851 158.312C700.85 160.09 705.216 160.94 709.878 160.94V151.94C706.328 151.94 703.227 151.297 700.506 150.088L696.851 158.312ZM709.878 160.94C714.76 160.94 719.196 160.018 722.66 157.62L717.537 150.22C716.147 151.182 713.771 151.94 709.878 151.94V160.94ZM722.595 157.664C726.345 155.164 728.378 151.437 728.378 146.92H719.378C719.378 148.377 718.892 149.316 717.602 150.176L722.595 157.664ZM728.378 146.92C728.378 143.088 727.117 139.579 724.219 136.986L718.218 143.694C718.867 144.274 719.378 145.152 719.378 146.92H728.378ZM724.219 136.986C721.892 134.904 719.028 133.373 715.781 132.291L712.935 140.829C715.289 141.613 716.998 142.602 718.218 143.694L724.219 136.986ZM715.825 132.306C713.016 131.337 710.027 130.422 706.862 129.559L704.494 138.241C707.49 139.058 710.288 139.916 712.891 140.814L715.825 132.306ZM706.983 129.593C704.1 128.719 701.36 127.675 698.761 126.462L694.955 134.618C697.957 136.019 701.097 137.214 704.373 138.207L706.983 129.593ZM698.871 126.515C696.685 125.422 694.964 123.968 693.632 122.145L686.365 127.455C688.58 130.485 691.432 132.858 694.846 134.565L698.871 126.515ZM693.698 122.239C692.686 120.776 691.978 118.581 691.978 115.28H682.978C682.978 119.819 683.951 123.971 686.299 127.361L693.698 122.239ZM691.978 115.28C691.978 112.285 692.68 109.952 693.903 108.086L686.374 103.154C684.05 106.701 682.978 110.809 682.978 115.28H691.978ZM693.883 108.116C695.233 106.091 697.15 104.473 699.806 103.292L696.151 95.0678C692.087 96.8741 688.777 99.5492 686.394 103.124L693.883 108.116ZM699.857 103.269C702.603 102.008 705.996 101.3 710.158 101.3V92.3C704.988 92.3 700.261 93.1791 696.1 95.091L699.857 103.269ZM710.158 101.3C714.559 101.3 718.408 102.086 721.78 103.576L725.417 95.3439C720.762 93.287 715.652 92.3 710.158 92.3V101.3ZM721.78 103.576C725.076 105.032 727.64 107.131 729.577 109.887L736.94 104.713C734.024 100.563 730.148 97.4343 725.417 95.3439L721.78 103.576ZM730.076 104.118L723.776 110.418L730.14 116.782L736.44 110.482L730.076 104.118ZM730.511 110.837C728.08 107.712 725.001 105.338 721.342 103.737L717.735 111.983C720.05 112.995 721.917 114.448 723.406 116.363L730.511 110.837ZM721.498 103.809C717.918 102.077 713.967 101.26 709.738 101.26V110.26C712.79 110.26 715.373 110.843 717.578 111.911L721.498 103.809ZM709.738 101.26C705.028 101.26 700.7 102.189 697.378 104.68L702.778 111.88C703.937 111.011 706.049 110.26 709.738 110.26V101.26ZM697.404 104.661C694.138 107.075 692.358 110.503 692.358 114.58H701.358C701.358 113.43 701.725 112.658 702.753 111.899L697.404 104.661ZM692.358 114.58C692.358 118.296 693.735 121.613 696.62 124.042L702.417 117.158C701.755 116.601 701.358 115.904 701.358 114.58H692.358ZM696.73 124.132C698.99 125.916 701.709 127.298 704.771 128.354L707.705 119.846C705.355 119.035 703.594 118.084 702.307 117.068L696.73 124.132ZM704.945 128.41C707.741 129.249 710.677 130.134 713.753 131.067L716.363 122.453C713.28 121.519 710.336 120.631 707.531 119.79L704.945 128.41ZM713.874 131.101C716.632 131.854 719.259 132.896 721.761 134.231L725.996 126.289C722.898 124.637 719.645 123.346 716.242 122.419L713.874 131.101ZM721.866 134.285C723.99 135.347 725.624 136.79 726.854 138.636L734.343 133.644C732.213 130.45 729.367 127.973 725.891 126.235L721.866 134.285ZM726.965 138.795C727.991 140.198 728.758 142.465 728.758 146.08H737.758C737.758 141.295 736.753 136.935 734.232 133.485L726.965 138.795ZM728.758 146.08C728.758 150.704 727.146 154.112 723.952 156.751L729.684 163.689C735.077 159.234 737.758 153.216 737.758 146.08H728.758ZM723.96 156.744C720.802 159.341 716.19 160.9 709.598 160.9V169.9C717.567 169.9 724.434 168.006 729.676 163.696L723.96 156.744Z" fill="#E72264"/>
</svg>
