<svg width="761" height="224" viewBox="0 0 761 224" fill="none" xmlns="http://www.w3.org/2000/svg">
<mask id="mask0_164_33" style="mask-type:alpha" maskUnits="userSpaceOnUse" x="0" y="32" width="159" height="160">
<rect y="32.5" width="159" height="159" rx="44.8462" fill="#D9D9D9"/>
</mask>
<g mask="url(#mask0_164_33)">
<path d="M159.042 32.5H0V191.542H159.042V32.5Z" fill="#E72264"/>
<path d="M83.3251 56.5C60.5013 56.5 42 74.9828 42 97.784C42 98.2309 42.0077 98.6739 42.0231 99.1169V138.791C42.0231 138.791 42.0231 138.795 42.0231 138.798V142.832C42.0231 142.832 42.0231 142.832 42.027 142.828V152.801C42.027 152.878 42.0231 152.951 42.0231 153.028C42.0231 153.105 42.027 153.182 42.0308 153.26V153.444H42.0347C42.2545 161.106 48.536 167.251 56.2596 167.251C63.9833 167.251 70.3303 161.106 70.5501 153.444V138.798H82.3573C82.6773 138.806 83.0012 138.81 83.3213 138.81C106.145 138.81 124.646 120.585 124.646 97.784C124.646 74.9828 106.149 56.5 83.3251 56.5ZM83.3251 110.304C80.7994 110.304 74.3984 110.304 71.7416 110.304H70.5617V97.7879C70.5617 90.773 76.3033 85.0833 83.3251 85.0833C90.347 85.0833 96.0424 90.773 96.0424 97.7879C96.0424 104.803 90.347 110.308 83.3251 110.308V110.304Z" fill="white"/>
<path opacity="0.15" d="M55.901 138.806H70.5308V153.448H70.4653C70.2455 161.11 63.964 167.255 56.2403 167.255C48.5167 167.255 42.2314 161.11 42.0116 153.448H42.0077V153.263C42.0077 153.186 42 153.109 42 153.032C42 152.955 42.0039 152.882 42.0039 152.805V151.773C42.4434 144.92 48.9177 138.806 55.8972 138.806H55.901Z" fill="#1D1D1B" fill-opacity="0.5"/>
<g opacity="0.05">
<path opacity="0.5" d="M42.0229 121.194V138.799C42.0229 123.29 55.0679 110.524 70.5538 110.312V104.695C59.0435 105.905 48.852 112.095 42.0229 121.194Z" fill="black" fill-opacity="0.5"/>
<path d="M42.0464 152.047C45.4089 149.581 49.4885 148.129 53.8921 148.129H70.5579V138.799H56.279C48.7366 138.799 42.5708 144.643 42.0464 152.047Z" fill="black" fill-opacity="0.5"/>
</g>
<g opacity="0.05">
<path opacity="0.5" d="M70.5538 110.312V105.211C58.9471 106.348 48.7055 112.673 42.0229 121.961V138.799C42.0229 123.29 55.0679 110.524 70.5538 110.312Z" fill="black" fill-opacity="0.5"/>
<path d="M56.2787 138.799C48.9407 138.799 42.9022 144.334 42.1001 151.453C45.4587 148.834 49.6078 147.285 54.1078 147.285H70.5538V138.803H56.2749L56.2787 138.799Z" fill="black" fill-opacity="0.5"/>
</g>
<g opacity="0.05">
<path opacity="0.5" d="M70.5538 110.312V105.724C58.843 106.783 48.5358 113.263 42.0229 122.759V138.795C42.0229 123.286 55.0679 110.52 70.5538 110.308V110.312Z" fill="black" fill-opacity="0.5"/>
<path d="M56.2788 138.799C49.1451 138.799 43.2415 144.026 42.1772 150.856C45.5166 148.086 49.7351 146.434 54.3238 146.434H70.5538V138.799H56.2749H56.2788Z" fill="black" fill-opacity="0.5"/>
</g>
<g opacity="0.05">
<path opacity="0.5" d="M70.5538 110.312V106.24C58.7234 107.218 48.3468 113.875 42.0229 123.602V138.799C42.0229 123.29 55.0679 110.523 70.5538 110.312Z" fill="black" fill-opacity="0.5"/>
<path d="M56.2787 138.799C49.3494 138.799 43.5769 143.733 42.2812 150.275C45.5936 147.351 49.8699 145.586 54.5434 145.586H70.5576V138.799H56.2787Z" fill="black" fill-opacity="0.5"/>
</g>
<g opacity="0.05">
<path opacity="0.5" d="M70.5538 110.311V106.76C58.5846 107.646 48.1271 114.51 42.0229 124.491V138.799C42.0229 123.29 55.0679 110.523 70.5538 110.311Z" fill="black" fill-opacity="0.5"/>
<path d="M56.2789 138.799C49.5578 138.799 43.928 143.441 42.4126 149.685C45.6787 146.611 50.009 144.735 54.7596 144.735H70.554V138.795H56.2751L56.2789 138.799Z" fill="black" fill-opacity="0.5"/>
</g>
<g opacity="0.05">
<path opacity="0.5" d="M70.5538 110.311V107.28C58.4265 108.073 47.8687 115.173 42.0229 125.447V138.798C42.0229 123.29 55.0679 110.523 70.5538 110.311Z" fill="black" fill-opacity="0.5"/>
<path d="M56.279 138.799C49.77 138.799 44.2867 143.152 42.5708 149.096C45.779 145.871 50.1518 143.888 54.9795 143.888H70.5579V138.799H56.279Z" fill="black" fill-opacity="0.5"/>
</g>
<g opacity="0.05">
<path opacity="0.5" d="M70.5538 110.311V107.804C58.2414 108.493 47.5641 115.878 42.0229 126.483V138.798C42.0229 123.29 55.0679 110.523 70.5538 110.311Z" fill="black" fill-opacity="0.5"/>
<path d="M56.2789 138.799C49.9897 138.799 44.653 142.867 42.752 148.51C45.8869 145.14 50.3021 143.04 55.1915 143.04H70.554V138.799H56.2751H56.2789Z" fill="black" fill-opacity="0.5"/>
</g>
<g opacity="0.05">
<path opacity="0.5" d="M70.5538 110.312V108.332C58.0139 108.909 47.1939 116.641 42.0229 127.635V138.799C42.0229 123.29 55.0679 110.523 70.5538 110.312Z" fill="black" fill-opacity="0.5"/>
<path d="M56.2787 138.799C50.2055 138.799 45.0229 142.593 42.96 147.936C46.0101 144.415 50.4522 142.193 55.4111 142.193H70.5576V138.799H56.2787Z" fill="black" fill-opacity="0.5"/>
</g>
<g opacity="0.05">
<path opacity="0.5" d="M70.5538 110.312V108.871C57.7247 109.33 46.7196 117.496 42.0229 128.972V138.799C42.0229 123.29 55.0679 110.524 70.5538 110.312Z" fill="black" fill-opacity="0.5"/>
<path d="M56.2789 138.799C50.4254 138.799 45.3972 142.324 43.1992 147.362C46.1414 143.691 50.6144 141.345 55.6311 141.345H70.5578V138.799H56.2789Z" fill="black" fill-opacity="0.5"/>
</g>
</g>
<mask id="path-23-outside-1_164_33" maskUnits="userSpaceOnUse" x="181" y="59" width="579" height="112" fill="black">
<rect fill="white" x="181" y="59" width="579" height="112"/>
<path d="M192.62 164V154.48H220.9C228.46 154.48 235.133 152.847 240.92 149.58C246.707 146.22 251.233 141.647 254.5 135.86C257.767 129.98 259.4 123.26 259.4 115.7C259.4 108.14 257.767 101.467 254.5 95.68C251.233 89.8933 246.707 85.3667 240.92 82.1C235.133 78.74 228.46 77.06 220.9 77.06H192.9V67.68H221.18C228.18 67.68 234.62 68.8933 240.5 71.32C246.473 73.6533 251.653 77.0133 256.04 81.4C260.52 85.6933 263.973 90.78 266.4 96.66C268.827 102.447 270.04 108.84 270.04 115.84C270.04 122.653 268.827 129 266.4 134.88C263.973 140.76 260.567 145.893 256.18 150.28C251.793 154.573 246.613 157.933 240.64 160.36C234.76 162.787 228.367 164 221.46 164H192.62ZM186.32 164V67.68H196.54V164H186.32ZM320.616 165.4C313.989 165.4 308.063 163.907 302.836 160.92C297.609 157.933 293.456 153.827 290.376 148.6C287.389 143.373 285.896 137.493 285.896 130.96C285.896 124.52 287.389 118.733 290.376 113.6C293.363 108.373 297.423 104.267 302.556 101.28C307.689 98.2933 313.429 96.8 319.776 96.8C325.749 96.8 331.023 98.1533 335.596 100.86C340.263 103.567 343.903 107.347 346.516 112.2C349.223 116.96 350.576 122.467 350.576 128.72C350.576 129.467 350.529 130.353 350.436 131.38C350.343 132.313 350.156 133.433 349.876 134.74H292.896V126.34H344.556L341.056 129.42C341.149 124.567 340.309 120.413 338.536 116.96C336.856 113.413 334.383 110.707 331.116 108.84C327.943 106.88 324.069 105.9 319.496 105.9C314.736 105.9 310.583 106.927 307.036 108.98C303.489 111.033 300.689 113.927 298.636 117.66C296.676 121.3 295.696 125.64 295.696 130.68C295.696 135.72 296.723 140.153 298.776 143.98C300.923 147.807 303.863 150.793 307.596 152.94C311.423 155.087 315.809 156.16 320.756 156.16C324.769 156.16 328.456 155.46 331.816 154.06C335.176 152.567 338.023 150.373 340.356 147.48L346.656 153.92C343.576 157.56 339.749 160.407 335.176 162.46C330.696 164.42 325.843 165.4 320.616 165.4ZM390.234 164L359.854 98.2H370.774L396.394 155.74H390.234L415.994 98.2H426.634L395.974 164H390.234ZM470.835 164V70.34H481.195V164H470.835ZM436.955 77.06V67.68H515.075V77.06H436.955ZM543.241 165.4C536.895 165.4 531.108 163.86 525.881 160.78C520.748 157.7 516.641 153.547 513.561 148.32C510.575 143.093 509.081 137.26 509.081 130.82C509.081 124.473 510.575 118.733 513.561 113.6C516.641 108.467 520.748 104.407 525.881 101.42C531.108 98.34 536.895 96.8 543.241 96.8C549.681 96.8 555.468 98.2933 560.601 101.28C565.735 104.267 569.795 108.373 572.781 113.6C575.861 118.733 577.401 124.473 577.401 130.82C577.401 137.353 575.861 143.233 572.781 148.46C569.795 153.593 565.735 157.7 560.601 160.78C555.468 163.86 549.681 165.4 543.241 165.4ZM543.241 155.88C547.908 155.88 552.015 154.807 555.561 152.66C559.201 150.513 562.048 147.527 564.101 143.7C566.248 139.873 567.321 135.58 567.321 130.82C567.321 126.06 566.248 121.86 564.101 118.22C562.048 114.487 559.201 111.547 555.561 109.4C552.015 107.253 547.908 106.18 543.241 106.18C538.668 106.18 534.561 107.253 530.921 109.4C527.281 111.547 524.435 114.487 522.381 118.22C520.328 121.86 519.301 126.06 519.301 130.82C519.301 135.673 520.328 140.013 522.381 143.84C524.435 147.573 527.281 150.513 530.921 152.66C534.561 154.807 538.668 155.88 543.241 155.88ZM625.612 165.4C619.265 165.4 613.478 163.86 608.252 160.78C603.118 157.7 599.012 153.547 595.932 148.32C592.945 143.093 591.452 137.26 591.452 130.82C591.452 124.473 592.945 118.733 595.932 113.6C599.012 108.467 603.118 104.407 608.252 101.42C613.478 98.34 619.265 96.8 625.612 96.8C632.052 96.8 637.838 98.2933 642.972 101.28C648.105 104.267 652.165 108.373 655.152 113.6C658.232 118.733 659.772 124.473 659.772 130.82C659.772 137.353 658.232 143.233 655.152 148.46C652.165 153.593 648.105 157.7 642.972 160.78C637.838 163.86 632.052 165.4 625.612 165.4ZM625.612 155.88C630.278 155.88 634.385 154.807 637.932 152.66C641.572 150.513 644.418 147.527 646.472 143.7C648.618 139.873 649.692 135.58 649.692 130.82C649.692 126.06 648.618 121.86 646.472 118.22C644.418 114.487 641.572 111.547 637.932 109.4C634.385 107.253 630.278 106.18 625.612 106.18C621.038 106.18 616.932 107.253 613.292 109.4C609.652 111.547 606.805 114.487 604.752 118.22C602.698 121.86 601.672 126.06 601.672 130.82C601.672 135.673 602.698 140.013 604.752 143.84C606.805 147.573 609.652 150.513 613.292 152.66C616.932 154.807 621.038 155.88 625.612 155.88ZM678.162 164V64.88H687.962V164H678.162ZM730.79 165.4C727.243 165.4 723.836 164.933 720.57 164C717.303 162.973 714.316 161.573 711.61 159.8C708.996 158.027 706.71 155.927 704.75 153.5L711.05 147.06C713.663 150.233 716.603 152.613 719.87 154.2C723.23 155.693 726.963 156.44 731.07 156.44C735.456 156.44 738.863 155.6 741.29 153.92C743.81 152.24 745.07 149.907 745.07 146.92C745.07 144.12 744.183 141.927 742.41 140.34C740.636 138.753 738.35 137.493 735.55 136.56C732.843 135.627 729.95 134.74 726.87 133.9C723.79 132.967 720.85 131.847 718.05 130.54C715.25 129.14 712.963 127.227 711.19 124.8C709.51 122.373 708.67 119.2 708.67 115.28C708.67 111.547 709.556 108.327 711.33 105.62C713.196 102.82 715.81 100.673 719.17 99.18C722.623 97.5933 726.683 96.8 731.35 96.8C736.296 96.8 740.776 97.6867 744.79 99.46C748.803 101.233 752.023 103.847 754.45 107.3L748.15 113.6C746.19 111.08 743.716 109.167 740.73 107.86C737.836 106.46 734.57 105.76 730.93 105.76C726.73 105.76 723.51 106.6 721.27 108.28C719.123 109.867 718.05 111.967 718.05 114.58C718.05 117.1 718.936 119.107 720.71 120.6C722.483 122 724.723 123.167 727.43 124.1C730.23 124.94 733.17 125.827 736.25 126.76C739.33 127.6 742.27 128.767 745.07 130.26C747.87 131.66 750.11 133.62 751.79 136.14C753.563 138.567 754.45 141.88 754.45 146.08C754.45 151.96 752.303 156.673 748.01 160.22C743.81 163.673 738.07 165.4 730.79 165.4Z"/>
</mask>
<path d="M192.62 164V154.48H220.9C228.46 154.48 235.133 152.847 240.92 149.58C246.707 146.22 251.233 141.647 254.5 135.86C257.767 129.98 259.4 123.26 259.4 115.7C259.4 108.14 257.767 101.467 254.5 95.68C251.233 89.8933 246.707 85.3667 240.92 82.1C235.133 78.74 228.46 77.06 220.9 77.06H192.9V67.68H221.18C228.18 67.68 234.62 68.8933 240.5 71.32C246.473 73.6533 251.653 77.0133 256.04 81.4C260.52 85.6933 263.973 90.78 266.4 96.66C268.827 102.447 270.04 108.84 270.04 115.84C270.04 122.653 268.827 129 266.4 134.88C263.973 140.76 260.567 145.893 256.18 150.28C251.793 154.573 246.613 157.933 240.64 160.36C234.76 162.787 228.367 164 221.46 164H192.62ZM186.32 164V67.68H196.54V164H186.32ZM320.616 165.4C313.989 165.4 308.063 163.907 302.836 160.92C297.609 157.933 293.456 153.827 290.376 148.6C287.389 143.373 285.896 137.493 285.896 130.96C285.896 124.52 287.389 118.733 290.376 113.6C293.363 108.373 297.423 104.267 302.556 101.28C307.689 98.2933 313.429 96.8 319.776 96.8C325.749 96.8 331.023 98.1533 335.596 100.86C340.263 103.567 343.903 107.347 346.516 112.2C349.223 116.96 350.576 122.467 350.576 128.72C350.576 129.467 350.529 130.353 350.436 131.38C350.343 132.313 350.156 133.433 349.876 134.74H292.896V126.34H344.556L341.056 129.42C341.149 124.567 340.309 120.413 338.536 116.96C336.856 113.413 334.383 110.707 331.116 108.84C327.943 106.88 324.069 105.9 319.496 105.9C314.736 105.9 310.583 106.927 307.036 108.98C303.489 111.033 300.689 113.927 298.636 117.66C296.676 121.3 295.696 125.64 295.696 130.68C295.696 135.72 296.723 140.153 298.776 143.98C300.923 147.807 303.863 150.793 307.596 152.94C311.423 155.087 315.809 156.16 320.756 156.16C324.769 156.16 328.456 155.46 331.816 154.06C335.176 152.567 338.023 150.373 340.356 147.48L346.656 153.92C343.576 157.56 339.749 160.407 335.176 162.46C330.696 164.42 325.843 165.4 320.616 165.4ZM390.234 164L359.854 98.2H370.774L396.394 155.74H390.234L415.994 98.2H426.634L395.974 164H390.234ZM470.835 164V70.34H481.195V164H470.835ZM436.955 77.06V67.68H515.075V77.06H436.955ZM543.241 165.4C536.895 165.4 531.108 163.86 525.881 160.78C520.748 157.7 516.641 153.547 513.561 148.32C510.575 143.093 509.081 137.26 509.081 130.82C509.081 124.473 510.575 118.733 513.561 113.6C516.641 108.467 520.748 104.407 525.881 101.42C531.108 98.34 536.895 96.8 543.241 96.8C549.681 96.8 555.468 98.2933 560.601 101.28C565.735 104.267 569.795 108.373 572.781 113.6C575.861 118.733 577.401 124.473 577.401 130.82C577.401 137.353 575.861 143.233 572.781 148.46C569.795 153.593 565.735 157.7 560.601 160.78C555.468 163.86 549.681 165.4 543.241 165.4ZM543.241 155.88C547.908 155.88 552.015 154.807 555.561 152.66C559.201 150.513 562.048 147.527 564.101 143.7C566.248 139.873 567.321 135.58 567.321 130.82C567.321 126.06 566.248 121.86 564.101 118.22C562.048 114.487 559.201 111.547 555.561 109.4C552.015 107.253 547.908 106.18 543.241 106.18C538.668 106.18 534.561 107.253 530.921 109.4C527.281 111.547 524.435 114.487 522.381 118.22C520.328 121.86 519.301 126.06 519.301 130.82C519.301 135.673 520.328 140.013 522.381 143.84C524.435 147.573 527.281 150.513 530.921 152.66C534.561 154.807 538.668 155.88 543.241 155.88ZM625.612 165.4C619.265 165.4 613.478 163.86 608.252 160.78C603.118 157.7 599.012 153.547 595.932 148.32C592.945 143.093 591.452 137.26 591.452 130.82C591.452 124.473 592.945 118.733 595.932 113.6C599.012 108.467 603.118 104.407 608.252 101.42C613.478 98.34 619.265 96.8 625.612 96.8C632.052 96.8 637.838 98.2933 642.972 101.28C648.105 104.267 652.165 108.373 655.152 113.6C658.232 118.733 659.772 124.473 659.772 130.82C659.772 137.353 658.232 143.233 655.152 148.46C652.165 153.593 648.105 157.7 642.972 160.78C637.838 163.86 632.052 165.4 625.612 165.4ZM625.612 155.88C630.278 155.88 634.385 154.807 637.932 152.66C641.572 150.513 644.418 147.527 646.472 143.7C648.618 139.873 649.692 135.58 649.692 130.82C649.692 126.06 648.618 121.86 646.472 118.22C644.418 114.487 641.572 111.547 637.932 109.4C634.385 107.253 630.278 106.18 625.612 106.18C621.038 106.18 616.932 107.253 613.292 109.4C609.652 111.547 606.805 114.487 604.752 118.22C602.698 121.86 601.672 126.06 601.672 130.82C601.672 135.673 602.698 140.013 604.752 143.84C606.805 147.573 609.652 150.513 613.292 152.66C616.932 154.807 621.038 155.88 625.612 155.88ZM678.162 164V64.88H687.962V164H678.162ZM730.79 165.4C727.243 165.4 723.836 164.933 720.57 164C717.303 162.973 714.316 161.573 711.61 159.8C708.996 158.027 706.71 155.927 704.75 153.5L711.05 147.06C713.663 150.233 716.603 152.613 719.87 154.2C723.23 155.693 726.963 156.44 731.07 156.44C735.456 156.44 738.863 155.6 741.29 153.92C743.81 152.24 745.07 149.907 745.07 146.92C745.07 144.12 744.183 141.927 742.41 140.34C740.636 138.753 738.35 137.493 735.55 136.56C732.843 135.627 729.95 134.74 726.87 133.9C723.79 132.967 720.85 131.847 718.05 130.54C715.25 129.14 712.963 127.227 711.19 124.8C709.51 122.373 708.67 119.2 708.67 115.28C708.67 111.547 709.556 108.327 711.33 105.62C713.196 102.82 715.81 100.673 719.17 99.18C722.623 97.5933 726.683 96.8 731.35 96.8C736.296 96.8 740.776 97.6867 744.79 99.46C748.803 101.233 752.023 103.847 754.45 107.3L748.15 113.6C746.19 111.08 743.716 109.167 740.73 107.86C737.836 106.46 734.57 105.76 730.93 105.76C726.73 105.76 723.51 106.6 721.27 108.28C719.123 109.867 718.05 111.967 718.05 114.58C718.05 117.1 718.936 119.107 720.71 120.6C722.483 122 724.723 123.167 727.43 124.1C730.23 124.94 733.17 125.827 736.25 126.76C739.33 127.6 742.27 128.767 745.07 130.26C747.87 131.66 750.11 133.62 751.79 136.14C753.563 138.567 754.45 141.88 754.45 146.08C754.45 151.96 752.303 156.673 748.01 160.22C743.81 163.673 738.07 165.4 730.79 165.4Z" fill="#E72264"/>
<path d="M192.62 164H187.62C187.62 166.761 189.859 169 192.62 169V164ZM192.62 154.48V149.48C189.859 149.48 187.62 151.719 187.62 154.48H192.62ZM240.92 149.58L243.378 153.934C243.396 153.924 243.413 153.914 243.431 153.904L240.92 149.58ZM254.5 135.86L258.854 138.318C258.86 138.308 258.865 138.298 258.871 138.288L254.5 135.86ZM254.5 95.68L258.854 93.222L258.854 93.222L254.5 95.68ZM240.92 82.1L238.409 86.4239C238.427 86.4341 238.444 86.4442 238.462 86.4541L240.92 82.1ZM192.9 77.06H187.9C187.9 79.8214 190.139 82.06 192.9 82.06V77.06ZM192.9 67.68V62.68C190.139 62.68 187.9 64.9186 187.9 67.68H192.9ZM240.5 71.32L238.593 75.9419C238.622 75.9539 238.651 75.9658 238.681 75.9773L240.5 71.32ZM256.04 81.4L252.504 84.9355C252.53 84.9606 252.555 84.9854 252.58 85.0099L256.04 81.4ZM266.4 96.66L261.778 98.5674C261.782 98.5762 261.785 98.5849 261.789 98.5936L266.4 96.66ZM266.4 134.88L271.022 136.787L271.022 136.787L266.4 134.88ZM256.18 150.28L259.677 153.853C259.69 153.841 259.703 153.828 259.716 153.816L256.18 150.28ZM240.64 160.36L238.758 155.728C238.75 155.731 238.741 155.735 238.733 155.738L240.64 160.36ZM186.32 164H181.32C181.32 166.761 183.559 169 186.32 169V164ZM186.32 67.68V62.68C183.559 62.68 181.32 64.9186 181.32 67.68H186.32ZM196.54 67.68H201.54C201.54 64.9186 199.301 62.68 196.54 62.68V67.68ZM196.54 164V169C199.301 169 201.54 166.761 201.54 164H196.54ZM197.62 164V154.48H187.62V164H197.62ZM192.62 159.48H220.9V149.48H192.62V159.48ZM220.9 159.48C229.201 159.48 236.743 157.68 243.378 153.934L238.462 145.226C233.524 148.014 227.719 149.48 220.9 149.48V159.48ZM243.431 153.904C249.981 150.1 255.147 144.885 258.854 138.318L250.146 133.402C247.32 138.408 243.432 142.34 238.409 145.256L243.431 153.904ZM258.871 138.288C262.599 131.577 264.4 124.003 264.4 115.7H254.4C254.4 122.517 252.934 128.383 250.129 133.432L258.871 138.288ZM264.4 115.7C264.4 107.399 262.6 99.857 258.854 93.222L250.146 98.138C252.934 103.076 254.4 108.881 254.4 115.7H264.4ZM258.854 93.222C255.14 86.6424 249.958 81.4602 243.378 77.7459L238.462 86.4541C243.456 89.2732 247.327 93.1442 250.146 98.138L258.854 93.222ZM243.431 77.7761C236.786 73.9181 229.225 72.06 220.9 72.06V82.06C227.695 82.06 233.48 83.5619 238.409 86.4239L243.431 77.7761ZM220.9 72.06H192.9V82.06H220.9V72.06ZM197.9 77.06V67.68H187.9V77.06H197.9ZM192.9 72.68H221.18V62.68H192.9V72.68ZM221.18 72.68C227.592 72.68 233.376 73.7888 238.593 75.9419L242.407 66.6981C235.864 63.9978 228.768 62.68 221.18 62.68V72.68ZM238.681 75.9773C244.033 78.068 248.623 81.0539 252.504 84.9355L259.576 77.8645C254.684 72.9727 248.914 69.2387 242.319 66.6627L238.681 75.9773ZM252.58 85.0099C256.546 88.8104 259.61 93.3129 261.778 98.5674L271.022 94.7526C268.337 88.247 264.494 82.5762 259.5 77.7901L252.58 85.0099ZM261.789 98.5936C263.931 103.701 265.04 109.427 265.04 115.84H275.04C275.04 108.253 273.723 101.192 271.011 94.7264L261.789 98.5936ZM265.04 115.84C265.04 122.046 263.938 127.74 261.778 132.973L271.022 136.787C273.716 130.26 275.04 123.261 275.04 115.84H265.04ZM261.778 132.973C259.596 138.259 256.553 142.836 252.644 146.744L259.716 153.816C264.58 148.951 268.35 143.261 271.022 136.787L261.778 132.973ZM252.683 146.707C248.784 150.523 244.16 153.533 238.758 155.728L242.522 164.992C249.067 162.334 254.803 158.624 259.677 153.853L252.683 146.707ZM238.733 155.738C233.508 157.894 227.769 159 221.46 159V169C228.965 169 236.012 167.679 242.547 164.982L238.733 155.738ZM221.46 159H192.62V169H221.46V159ZM191.32 164V67.68H181.32V164H191.32ZM186.32 72.68H196.54V62.68H186.32V72.68ZM191.54 67.68V164H201.54V67.68H191.54ZM196.54 159H186.32V169H196.54V159ZM302.836 160.92L305.317 156.579L305.317 156.579L302.836 160.92ZM290.376 148.6L286.035 151.081C286.046 151.1 286.057 151.119 286.068 151.138L290.376 148.6ZM290.376 113.6L294.698 116.114C294.704 116.103 294.711 116.092 294.717 116.081L290.376 113.6ZM335.596 100.86L333.049 105.163C333.062 105.17 333.075 105.178 333.088 105.185L335.596 100.86ZM346.516 112.2L342.114 114.57C342.132 114.604 342.151 114.638 342.17 114.672L346.516 112.2ZM350.436 131.38L355.411 131.878C355.413 131.863 355.414 131.848 355.416 131.833L350.436 131.38ZM349.876 134.74V139.74C352.234 139.74 354.271 138.093 354.765 135.788L349.876 134.74ZM292.896 134.74H287.896C287.896 137.501 290.135 139.74 292.896 139.74V134.74ZM292.896 126.34V121.34C290.135 121.34 287.896 123.579 287.896 126.34H292.896ZM344.556 126.34L347.859 130.094C349.421 128.719 349.969 126.521 349.234 124.575C348.5 122.628 346.637 121.34 344.556 121.34V126.34ZM341.056 129.42L336.057 129.324C336.019 131.305 337.155 133.122 338.953 133.956C340.751 134.79 342.871 134.483 344.359 133.174L341.056 129.42ZM338.536 116.96L334.017 119.1C334.04 119.149 334.064 119.197 334.088 119.244L338.536 116.96ZM331.116 108.84L328.489 113.094C328.537 113.124 328.586 113.153 328.635 113.181L331.116 108.84ZM307.036 108.98L309.541 113.307L309.541 113.307L307.036 108.98ZM298.636 117.66L294.255 115.25C294.248 115.263 294.241 115.276 294.234 115.289L298.636 117.66ZM298.776 143.98L294.37 146.344C294.385 146.372 294.4 146.399 294.415 146.426L298.776 143.98ZM307.596 152.94L305.104 157.275C305.119 157.283 305.134 157.292 305.15 157.301L307.596 152.94ZM331.816 154.06L333.739 158.675C333.775 158.66 333.811 158.645 333.847 158.629L331.816 154.06ZM340.356 147.48L343.93 143.984C342.931 142.962 341.544 142.417 340.117 142.486C338.69 142.554 337.361 143.229 336.464 144.341L340.356 147.48ZM346.656 153.92L350.473 157.15C352.139 155.181 352.034 152.267 350.23 150.424L346.656 153.92ZM335.176 162.46L337.18 167.041C337.195 167.034 337.209 167.028 337.224 167.021L335.176 162.46ZM320.616 160.4C314.77 160.4 309.713 159.091 305.317 156.579L300.355 165.261C306.412 168.722 313.209 170.4 320.616 170.4V160.4ZM305.317 156.579C300.852 154.027 297.326 150.545 294.684 146.062L286.068 151.138C289.587 157.109 294.367 161.839 300.355 165.261L305.317 156.579ZM294.717 146.119C292.199 141.712 290.896 136.7 290.896 130.96H280.896C280.896 138.287 282.58 145.035 286.035 151.081L294.717 146.119ZM290.896 130.96C290.896 125.326 292.193 120.42 294.698 116.114L286.054 111.086C282.586 117.046 280.896 123.714 280.896 130.96H290.896ZM294.717 116.081C297.274 111.607 300.708 108.14 305.071 105.602L300.042 96.9583C294.137 100.394 289.452 105.14 286.035 111.119L294.717 116.081ZM305.071 105.602C309.388 103.09 314.25 101.8 319.776 101.8V91.8C312.609 91.8 305.991 93.4968 300.042 96.9583L305.071 105.602ZM319.776 101.8C324.967 101.8 329.34 102.967 333.049 105.163L338.143 96.5571C332.706 93.3395 326.532 91.8 319.776 91.8V101.8ZM333.088 105.185C336.936 107.417 339.929 110.513 342.114 114.57L350.918 109.83C347.877 104.181 343.589 99.7159 338.105 96.5348L333.088 105.185ZM342.17 114.672C344.39 118.577 345.576 123.208 345.576 128.72H355.576C355.576 121.725 354.055 115.343 350.863 109.728L342.17 114.672ZM345.576 128.72C345.576 129.271 345.541 129.999 345.457 130.927L355.416 131.833C355.518 130.708 355.576 129.662 355.576 128.72H345.576ZM345.461 130.882C345.392 131.572 345.243 132.498 344.987 133.692L354.765 135.788C355.069 134.369 355.294 133.055 355.411 131.878L345.461 130.882ZM349.876 129.74H292.896V139.74H349.876V129.74ZM297.896 134.74V126.34H287.896V134.74H297.896ZM292.896 131.34H344.556V121.34H292.896V131.34ZM341.253 122.586L337.753 125.666L344.359 133.174L347.859 130.094L341.253 122.586ZM346.055 129.516C346.16 124.039 345.218 119.027 342.984 114.676L334.088 119.244C335.401 121.8 336.138 125.094 336.057 129.324L346.055 129.516ZM343.055 114.82C340.957 110.39 337.792 106.896 333.597 104.499L328.635 113.181C330.974 114.517 332.755 116.436 334.017 119.1L343.055 114.82ZM333.744 104.586C329.619 102.039 324.788 100.9 319.496 100.9V110.9C323.351 110.9 326.266 111.721 328.489 113.094L333.744 104.586ZM319.496 100.9C314 100.9 308.954 102.092 304.531 104.653L309.541 113.307C312.211 111.761 315.472 110.9 319.496 110.9V100.9ZM304.531 104.653C300.164 107.181 296.729 110.752 294.255 115.25L303.017 120.07C304.65 117.101 306.815 114.885 309.541 113.307L304.531 104.653ZM294.234 115.289C291.804 119.801 290.696 124.992 290.696 130.68H300.696C300.696 126.288 301.548 122.799 303.038 120.03L294.234 115.289ZM290.696 130.68C290.696 136.412 291.868 141.682 294.37 146.344L303.182 141.616C301.577 138.625 300.696 135.028 300.696 130.68H290.696ZM294.415 146.426C296.994 151.024 300.573 154.67 305.104 157.275L310.088 148.605C307.152 146.917 304.851 144.59 303.137 141.534L294.415 146.426ZM305.15 157.301C309.815 159.918 315.064 161.16 320.756 161.16V151.16C316.555 151.16 313.031 150.256 310.042 148.579L305.15 157.301ZM320.756 161.16C325.362 161.16 329.71 160.354 333.739 158.675L329.893 149.445C327.202 150.566 324.177 151.16 320.756 151.16V161.16ZM333.847 158.629C337.94 156.81 341.422 154.123 344.248 150.619L336.464 144.341C334.623 146.624 332.412 148.324 329.785 149.491L333.847 158.629ZM336.782 150.976L343.082 157.416L350.23 150.424L343.93 143.984L336.782 150.976ZM342.839 150.69C340.267 153.73 337.056 156.135 333.128 157.899L337.224 167.021C342.443 164.678 346.886 161.39 350.473 157.15L342.839 150.69ZM333.172 157.879C329.367 159.544 325.201 160.4 320.616 160.4V170.4C326.484 170.4 332.026 169.296 337.18 167.041L333.172 157.879ZM390.234 164L385.695 166.096C386.512 167.866 388.284 169 390.234 169V164ZM359.854 98.2V93.2C358.149 93.2 356.561 94.0691 355.643 95.5055C354.724 96.942 354.6 98.7477 355.315 100.296L359.854 98.2ZM370.774 98.2L375.342 96.1662C374.539 94.3622 372.749 93.2 370.774 93.2V98.2ZM396.394 155.74V160.74C398.088 160.74 399.666 159.883 400.588 158.463C401.51 157.043 401.651 155.253 400.962 153.706L396.394 155.74ZM390.234 155.74L385.671 153.697C384.978 155.244 385.117 157.036 386.038 158.459C386.96 159.881 388.539 160.74 390.234 160.74V155.74ZM415.994 98.2V93.2C414.023 93.2 412.236 94.358 411.431 96.1569L415.994 98.2ZM426.634 98.2L431.167 100.312C431.888 98.7633 431.769 96.9536 430.851 95.5129C429.933 94.0722 428.343 93.2 426.634 93.2V98.2ZM395.974 164V169C397.918 169 399.686 167.874 400.507 166.112L395.974 164ZM394.774 161.904L364.394 96.1041L355.315 100.296L385.695 166.096L394.774 161.904ZM359.854 103.2H370.774V93.2H359.854V103.2ZM366.207 100.234L391.827 157.774L400.962 153.706L375.342 96.1662L366.207 100.234ZM396.394 150.74H390.234V160.74H396.394V150.74ZM394.798 157.783L420.558 100.243L411.431 96.1569L385.671 153.697L394.798 157.783ZM415.994 103.2H426.634V93.2H415.994V103.2ZM422.102 96.0882L391.442 161.888L400.507 166.112L431.167 100.312L422.102 96.0882ZM395.974 159H390.234V169H395.974V159ZM470.835 164H465.835C465.835 166.761 468.074 169 470.835 169V164ZM470.835 70.34V65.34C468.074 65.34 465.835 67.5786 465.835 70.34H470.835ZM481.195 70.34H486.195C486.195 67.5786 483.956 65.34 481.195 65.34V70.34ZM481.195 164V169C483.956 169 486.195 166.761 486.195 164H481.195ZM436.955 77.06H431.955C431.955 79.8214 434.194 82.06 436.955 82.06V77.06ZM436.955 67.68V62.68C434.194 62.68 431.955 64.9186 431.955 67.68H436.955ZM515.075 67.68H520.075C520.075 64.9186 517.836 62.68 515.075 62.68V67.68ZM515.075 77.06V82.06C517.836 82.06 520.075 79.8214 520.075 77.06H515.075ZM475.835 164V70.34H465.835V164H475.835ZM470.835 75.34H481.195V65.34H470.835V75.34ZM476.195 70.34V164H486.195V70.34H476.195ZM481.195 159H470.835V169H481.195V159ZM441.955 77.06V67.68H431.955V77.06H441.955ZM436.955 72.68H515.075V62.68H436.955V72.68ZM510.075 67.68V77.06H520.075V67.68H510.075ZM515.075 72.06H436.955V82.06H515.075V72.06ZM525.881 160.78L523.309 165.067C523.32 165.074 523.331 165.081 523.343 165.088L525.881 160.78ZM513.561 148.32L509.22 150.801C509.231 150.82 509.242 150.839 509.254 150.858L513.561 148.32ZM513.561 113.6L509.274 111.028C509.262 111.047 509.251 111.066 509.24 111.086L513.561 113.6ZM525.881 101.42L528.396 105.742C528.404 105.737 528.412 105.732 528.42 105.728L525.881 101.42ZM572.781 113.6L568.44 116.081C568.458 116.111 568.476 116.142 568.494 116.172L572.781 113.6ZM572.781 148.46L568.474 145.922C568.469 145.93 568.464 145.938 568.46 145.946L572.781 148.46ZM560.601 160.78L558.029 156.493L558.029 156.493L560.601 160.78ZM555.561 152.66L553.021 148.353C553.005 148.363 552.989 148.373 552.972 148.382L555.561 152.66ZM564.101 143.7L559.741 141.254C559.725 141.281 559.71 141.308 559.695 141.336L564.101 143.7ZM564.101 118.22L559.72 120.63C559.744 120.673 559.769 120.717 559.794 120.76L564.101 118.22ZM555.561 109.4L552.972 113.677C552.989 113.687 553.005 113.697 553.021 113.707L555.561 109.4ZM522.381 118.22L526.736 120.677C526.745 120.661 526.754 120.645 526.762 120.63L522.381 118.22ZM522.381 143.84L517.975 146.204C517.984 146.219 517.992 146.234 518 146.25L522.381 143.84ZM530.921 152.66L528.381 156.967L528.381 156.967L530.921 152.66ZM543.241 160.4C537.744 160.4 532.841 159.078 528.42 156.472L523.343 165.088C529.375 168.642 536.045 170.4 543.241 170.4V160.4ZM528.454 156.493C524.046 153.848 520.531 150.3 517.869 145.782L509.254 150.858C512.751 156.794 517.45 161.552 523.309 165.067L528.454 156.493ZM517.902 145.839C515.378 141.421 514.081 136.453 514.081 130.82H504.081C504.081 138.067 505.772 144.766 509.22 150.801L517.902 145.839ZM514.081 130.82C514.081 125.294 515.371 120.432 517.883 116.114L509.24 111.086C505.778 117.035 504.081 123.653 504.081 130.82H514.081ZM517.849 116.172C520.498 111.756 523.998 108.301 528.396 105.742L523.367 97.0983C517.498 100.513 512.784 105.177 509.274 111.028L517.849 116.172ZM528.42 105.728C532.841 103.122 537.744 101.8 543.241 101.8V91.8C536.045 91.8 529.375 93.5577 523.343 97.1123L528.42 105.728ZM543.241 101.8C548.875 101.8 553.781 103.096 558.087 105.602L563.116 96.9583C557.155 93.4902 550.488 91.8 543.241 91.8V101.8ZM558.087 105.602C562.449 108.14 565.884 111.607 568.44 116.081L577.122 111.119C573.706 105.14 569.02 100.394 563.116 96.9583L558.087 105.602ZM568.494 116.172C571.079 120.481 572.401 125.323 572.401 130.82H582.401C582.401 123.624 580.643 116.985 577.069 111.028L568.494 116.172ZM572.401 130.82C572.401 136.532 571.066 141.523 568.474 145.922L577.089 150.998C580.657 144.944 582.401 138.175 582.401 130.82H572.401ZM568.46 145.946C565.901 150.344 562.445 153.843 558.029 156.493L563.174 165.067C569.024 161.557 573.689 156.843 577.103 150.974L568.46 145.946ZM558.029 156.493C553.731 159.071 548.846 160.4 543.241 160.4V170.4C550.516 170.4 557.204 168.649 563.174 165.067L558.029 156.493ZM543.241 160.88C548.703 160.88 553.728 159.614 558.15 156.938L552.972 148.382C550.301 149.999 547.113 150.88 543.241 150.88V160.88ZM558.101 156.967C562.552 154.342 566.034 150.673 568.507 146.064L559.695 141.336C558.062 144.38 555.851 146.685 553.021 148.353L558.101 156.967ZM568.462 146.146C571.063 141.51 572.321 136.362 572.321 130.82H562.321C562.321 134.798 561.433 138.237 559.741 141.254L568.462 146.146ZM572.321 130.82C572.321 125.282 571.064 120.183 568.408 115.68L559.794 120.76C561.432 123.537 562.321 126.838 562.321 130.82H572.321ZM568.482 115.81C566 111.298 562.521 107.7 558.101 105.093L553.021 113.707C555.882 115.394 558.095 117.676 559.72 120.63L568.482 115.81ZM558.15 105.122C553.728 102.446 548.703 101.18 543.241 101.18V111.18C547.113 111.18 550.301 112.061 552.972 113.677L558.15 105.122ZM543.241 101.18C537.851 101.18 532.854 102.456 528.381 105.093L533.461 113.707C536.269 112.051 539.485 111.18 543.241 111.18V101.18ZM528.381 105.093C523.962 107.7 520.482 111.298 518 115.81L526.762 120.63C528.387 117.676 530.601 115.394 533.461 113.707L528.381 105.093ZM518.026 115.763C515.494 120.252 514.301 125.321 514.301 130.82H524.301C524.301 126.799 525.162 123.468 526.736 120.677L518.026 115.763ZM514.301 130.82C514.301 136.4 515.488 141.568 517.975 146.204L526.787 141.476C525.168 138.458 524.301 134.947 524.301 130.82H514.301ZM518 146.25C520.482 150.762 523.962 154.36 528.381 156.967L533.461 148.353C530.601 146.666 528.387 144.384 526.762 141.43L518 146.25ZM528.381 156.967C532.854 159.604 537.851 160.88 543.241 160.88V150.88C539.485 150.88 536.269 150.009 533.461 148.353L528.381 156.967ZM608.252 160.78L605.679 165.067C605.69 165.074 605.702 165.081 605.713 165.088L608.252 160.78ZM595.932 148.32L591.59 150.801C591.601 150.82 591.613 150.839 591.624 150.858L595.932 148.32ZM595.932 113.6L591.644 111.028C591.633 111.047 591.621 111.066 591.61 111.086L595.932 113.6ZM608.252 101.42L610.766 105.742C610.774 105.737 610.782 105.732 610.79 105.728L608.252 101.42ZM655.152 113.6L650.81 116.081C650.828 116.111 650.846 116.142 650.864 116.172L655.152 113.6ZM655.152 148.46L650.844 145.922C650.839 145.93 650.834 145.938 650.83 145.946L655.152 148.46ZM642.972 160.78L640.399 156.493L640.399 156.493L642.972 160.78ZM637.932 152.66L635.392 148.353C635.375 148.363 635.359 148.373 635.343 148.382L637.932 152.66ZM646.472 143.7L642.111 141.254C642.096 141.281 642.081 141.308 642.066 141.336L646.472 143.7ZM646.472 118.22L642.09 120.63C642.115 120.673 642.139 120.717 642.165 120.76L646.472 118.22ZM637.932 109.4L635.343 113.677C635.359 113.687 635.375 113.697 635.392 113.707L637.932 109.4ZM604.752 118.22L609.106 120.677C609.115 120.661 609.124 120.645 609.133 120.63L604.752 118.22ZM604.752 143.84L600.346 146.204C600.354 146.219 600.362 146.234 600.37 146.25L604.752 143.84ZM613.292 152.66L610.752 156.967L610.752 156.967L613.292 152.66ZM625.612 160.4C620.115 160.4 615.211 159.078 610.79 156.472L605.713 165.088C611.745 168.642 618.415 170.4 625.612 170.4V160.4ZM610.824 156.493C606.416 153.848 602.902 150.3 600.239 145.782L591.624 150.858C595.121 156.794 599.821 161.552 605.679 165.067L610.824 156.493ZM600.273 145.839C597.748 141.421 596.452 136.453 596.452 130.82H586.452C586.452 138.067 588.142 144.766 591.59 150.801L600.273 145.839ZM596.452 130.82C596.452 125.294 597.741 120.432 600.253 116.114L591.61 111.086C588.148 117.035 586.452 123.653 586.452 130.82H596.452ZM600.219 116.172C602.869 111.756 606.368 108.301 610.766 105.742L605.737 97.0983C599.869 100.513 595.154 105.177 591.644 111.028L600.219 116.172ZM610.79 105.728C615.211 103.122 620.115 101.8 625.612 101.8V91.8C618.415 91.8 611.745 93.5577 605.713 97.1123L610.79 105.728ZM625.612 101.8C631.245 101.8 636.151 103.096 640.457 105.602L645.486 96.9583C639.525 93.4902 632.858 91.8 625.612 91.8V101.8ZM640.457 105.602C644.819 108.14 648.254 111.607 650.81 116.081L659.493 111.119C656.076 105.14 651.39 100.394 645.486 96.9583L640.457 105.602ZM650.864 116.172C653.449 120.481 654.772 125.323 654.772 130.82H664.772C664.772 123.624 663.014 116.985 659.439 111.028L650.864 116.172ZM654.772 130.82C654.772 136.532 653.436 141.523 650.844 145.922L659.459 150.998C663.027 144.944 664.772 138.175 664.772 130.82H654.772ZM650.83 145.946C648.271 150.344 644.815 153.843 640.399 156.493L645.544 165.067C651.395 161.557 656.059 156.843 659.473 150.974L650.83 145.946ZM640.399 156.493C636.102 159.071 631.217 160.4 625.612 160.4V170.4C632.887 170.4 639.575 168.649 645.544 165.067L640.399 156.493ZM625.612 160.88C631.073 160.88 636.098 159.614 640.521 156.938L635.343 148.382C632.672 149.999 629.483 150.88 625.612 150.88V160.88ZM640.471 156.967C644.922 154.342 648.404 150.673 650.877 146.064L642.066 141.336C640.432 144.38 638.221 146.685 635.392 148.353L640.471 156.967ZM650.832 146.146C653.433 141.51 654.692 136.362 654.692 130.82H644.692C644.692 134.798 643.803 138.237 642.111 141.254L650.832 146.146ZM654.692 130.82C654.692 125.282 653.434 120.183 650.778 115.68L642.165 120.76C643.802 123.537 644.692 126.838 644.692 130.82H654.692ZM650.853 115.81C648.371 111.298 644.891 107.7 640.471 105.093L635.392 113.707C638.252 115.394 640.466 117.676 642.09 120.63L650.853 115.81ZM640.521 105.122C636.098 102.446 631.073 101.18 625.612 101.18V111.18C629.483 111.18 632.672 112.061 635.343 113.677L640.521 105.122ZM625.612 101.18C620.221 101.18 615.224 102.456 610.752 105.093L615.831 113.707C618.639 112.051 621.856 111.18 625.612 111.18V101.18ZM610.752 105.093C606.332 107.7 602.852 111.298 600.37 115.81L609.133 120.63C610.757 117.676 612.971 115.394 615.831 113.707L610.752 105.093ZM600.397 115.763C597.865 120.252 596.672 125.321 596.672 130.82H606.672C606.672 126.799 607.532 123.468 609.106 120.677L600.397 115.763ZM596.672 130.82C596.672 136.4 597.858 141.568 600.346 146.204L609.157 141.476C607.538 138.458 606.672 134.947 606.672 130.82H596.672ZM600.37 146.25C602.852 150.762 606.332 154.36 610.752 156.967L615.831 148.353C612.971 146.666 610.757 144.384 609.133 141.43L600.37 146.25ZM610.752 156.967C615.224 159.604 620.221 160.88 625.612 160.88V150.88C621.856 150.88 618.639 150.009 615.831 148.353L610.752 156.967ZM678.162 164H673.162C673.162 166.761 675.4 169 678.162 169V164ZM678.162 64.88V59.88C675.4 59.88 673.162 62.1186 673.162 64.88H678.162ZM687.962 64.88H692.962C692.962 62.1186 690.723 59.88 687.962 59.88V64.88ZM687.962 164V169C690.723 169 692.962 166.761 692.962 164H687.962ZM683.162 164V64.88H673.162V164H683.162ZM678.162 69.88H687.962V59.88H678.162V69.88ZM682.962 64.88V164H692.962V64.88H682.962ZM687.962 159H678.162V169H687.962V159ZM720.57 164L719.071 168.77C719.112 168.783 719.154 168.796 719.196 168.808L720.57 164ZM711.61 159.8L708.802 163.937C708.825 163.953 708.847 163.968 708.87 163.982L711.61 159.8ZM704.75 153.5L701.176 150.004C699.402 151.816 699.267 154.669 700.86 156.642L704.75 153.5ZM711.05 147.06L714.909 143.881C714.007 142.786 712.682 142.125 711.263 142.065C709.845 142.004 708.468 142.549 707.476 143.564L711.05 147.06ZM719.87 154.2L717.685 158.698C717.736 158.722 717.787 158.746 717.839 158.769L719.87 154.2ZM741.29 153.92L738.516 149.76C738.492 149.776 738.468 149.792 738.444 149.809L741.29 153.92ZM742.41 140.34L745.744 136.614L745.744 136.614L742.41 140.34ZM735.55 136.56L733.92 141.287C733.936 141.292 733.952 141.298 733.969 141.303L735.55 136.56ZM726.87 133.9L725.42 138.685C725.464 138.699 725.509 138.712 725.554 138.724L726.87 133.9ZM718.05 130.54L715.814 135.012C715.854 135.032 715.895 135.052 715.935 135.071L718.05 130.54ZM711.19 124.8L707.079 127.646C707.103 127.681 707.128 127.716 707.153 127.75L711.19 124.8ZM711.33 105.62L707.17 102.846C707.162 102.858 707.155 102.869 707.148 102.88L711.33 105.62ZM719.17 99.18L721.201 103.749C721.22 103.741 721.238 103.732 721.257 103.723L719.17 99.18ZM744.79 99.46L746.811 94.8866L746.811 94.8866L744.79 99.46ZM754.45 107.3L757.985 110.836C759.703 109.118 759.938 106.413 758.541 104.425L754.45 107.3ZM748.15 113.6L744.203 116.67C745.084 117.802 746.408 118.501 747.839 118.59C749.271 118.679 750.671 118.15 751.685 117.136L748.15 113.6ZM740.73 107.86L738.552 112.361C738.609 112.389 738.667 112.415 738.726 112.441L740.73 107.86ZM721.27 108.28L724.242 112.301C724.251 112.294 724.26 112.287 724.27 112.28L721.27 108.28ZM720.71 120.6L717.489 124.425C717.529 124.458 717.57 124.492 717.612 124.524L720.71 120.6ZM727.43 124.1L725.8 128.827C725.864 128.849 725.928 128.87 725.993 128.889L727.43 124.1ZM736.25 126.76L734.8 131.545C734.844 131.559 734.889 131.572 734.934 131.584L736.25 126.76ZM745.07 130.26L742.717 134.672C742.756 134.692 742.795 134.713 742.834 134.732L745.07 130.26ZM751.79 136.14L747.63 138.913C747.669 138.973 747.711 139.032 747.753 139.09L751.79 136.14ZM748.01 160.22L751.185 164.082L751.194 164.075L748.01 160.22ZM730.79 160.4C727.687 160.4 724.744 159.993 721.943 159.192L719.196 168.808C722.929 169.874 726.799 170.4 730.79 170.4V160.4ZM722.069 159.23C719.215 158.333 716.65 157.125 714.35 155.618L708.87 163.982C711.983 166.022 715.391 167.613 719.071 168.77L722.069 159.23ZM714.417 155.663C712.207 154.163 710.286 152.397 708.64 150.358L700.86 156.642C703.134 159.457 705.786 161.891 708.802 163.937L714.417 155.663ZM708.324 156.996L714.624 150.556L707.476 143.564L701.176 150.004L708.324 156.996ZM707.19 150.239C710.2 153.894 713.692 156.758 717.685 158.698L722.054 149.702C719.515 148.469 717.126 146.573 714.909 143.881L707.19 150.239ZM717.839 158.769C721.909 160.578 726.346 161.44 731.07 161.44V151.44C727.581 151.44 724.55 150.809 721.901 149.631L717.839 158.769ZM731.07 161.44C736.006 161.44 740.557 160.509 744.136 158.031L738.444 149.809C737.169 150.691 734.907 151.44 731.07 151.44V161.44ZM744.063 158.08C747.951 155.489 750.07 151.607 750.07 146.92H740.07C740.07 148.207 739.669 148.991 738.516 149.76L744.063 158.08ZM750.07 146.92C750.07 142.973 748.767 139.318 745.744 136.614L739.076 144.066C739.6 144.535 740.07 145.267 740.07 146.92H750.07ZM745.744 136.614C743.355 134.477 740.427 132.915 737.131 131.817L733.969 141.303C736.272 142.071 737.918 143.03 739.076 144.066L745.744 136.614ZM737.18 131.833C734.358 130.86 731.359 129.942 728.185 129.076L725.554 138.724C728.54 139.538 731.328 140.393 733.92 141.287L737.18 131.833ZM728.32 129.115C725.458 128.248 722.74 127.211 720.164 126.009L715.935 135.071C718.959 136.482 722.122 137.686 725.42 138.685L728.32 129.115ZM720.286 126.068C718.168 125.009 716.51 123.606 715.227 121.85L707.153 127.75C709.416 130.847 712.331 133.271 715.814 135.012L720.286 126.068ZM715.301 121.954C714.362 120.598 713.67 118.512 713.67 115.28H703.67C703.67 119.888 704.657 124.148 707.079 127.646L715.301 121.954ZM713.67 115.28C713.67 112.367 714.351 110.133 715.512 108.36L707.148 102.88C704.762 106.52 703.67 110.727 703.67 115.28H713.67ZM715.49 108.393C716.783 106.454 718.623 104.895 721.201 103.749L717.139 94.6109C712.997 96.452 709.61 99.1858 707.17 102.846L715.49 108.393ZM721.257 103.723C723.924 102.498 727.243 101.8 731.35 101.8V91.8C726.123 91.8 721.322 92.6886 717.082 94.6366L721.257 103.723ZM731.35 101.8C735.689 101.8 739.469 102.575 742.769 104.033L746.811 94.8866C742.084 92.7982 736.904 91.8 731.35 91.8V101.8ZM742.769 104.033C745.985 105.455 748.476 107.496 750.359 110.175L758.541 104.425C755.57 100.198 751.621 97.0122 746.811 94.8866L742.769 104.033ZM750.914 103.764L744.614 110.064L751.685 117.136L757.985 110.836L750.914 103.764ZM752.097 110.53C749.614 107.338 746.467 104.912 742.734 103.279L738.726 112.441C740.966 113.421 742.766 114.822 744.203 116.67L752.097 110.53ZM742.908 103.359C739.25 101.59 735.224 100.76 730.93 100.76V110.76C733.916 110.76 736.423 111.33 738.552 112.361L742.908 103.359ZM730.93 100.76C726.162 100.76 721.712 101.698 718.27 104.28L724.27 112.28C725.308 111.502 727.298 110.76 730.93 110.76V100.76ZM718.298 104.259C714.908 106.765 713.05 110.341 713.05 114.58H723.05C723.05 113.593 723.338 112.969 724.242 112.301L718.298 104.259ZM713.05 114.58C713.05 118.429 714.481 121.891 717.489 124.425L723.93 116.775C723.392 116.322 723.05 115.771 723.05 114.58H713.05ZM717.612 124.524C719.926 126.351 722.698 127.757 725.8 128.827L729.06 119.373C726.749 118.576 725.041 117.649 723.808 116.676L717.612 124.524ZM725.993 128.889C728.788 129.728 731.724 130.613 734.8 131.545L737.7 121.975C734.616 121.04 731.671 120.152 728.867 119.311L725.993 128.889ZM734.934 131.584C737.656 132.326 740.248 133.355 742.717 134.672L747.423 125.848C744.291 124.178 741.003 122.874 737.565 121.936L734.934 131.584ZM742.834 134.732C744.883 135.757 746.449 137.142 747.63 138.913L755.95 133.366C753.771 130.098 750.857 127.563 747.306 125.788L742.834 134.732ZM747.753 139.09C748.695 140.38 749.45 142.53 749.45 146.08H759.45C759.45 141.23 758.431 136.754 755.827 133.19L747.753 139.09ZM749.45 146.08C749.45 150.564 747.897 153.828 744.825 156.365L751.194 164.075C756.709 159.519 759.45 153.356 759.45 146.08H749.45ZM744.834 156.358C741.792 158.859 737.305 160.4 730.79 160.4V170.4C738.834 170.4 745.828 168.487 751.185 164.082L744.834 156.358Z" fill="#E72264" mask="url(#path-23-outside-1_164_33)"/>
</svg>
